/* XPM */
static char *_52a1bf6ec3a42b39aa7f54ad50f6793V31XVMrjPggE6qsE[] = {
/* columns rows colors chars-per-pixel */
"64 64 241 2 ",
"   c None",
".  c #140200",
"X  c #1C0100",
"o  c #1E0B02",
"O  c #160D00",
"+  c #240100",
"@  c #2A0200",
"#  c #240A00",
"$  c #2C0A01",
"%  c #2D090C",
"&  c #330300",
"*  c #3A0202",
"=  c #340C00",
"-  c #3B0C02",
";  c #3D0D0A",
":  c #380609",
">  c #291704",
",  c #341502",
"<  c #3B1301",
"1  c #3C1A0C",
"2  c #381608",
"3  c #3D1817",
"4  c #251F13",
"5  c #39230D",
"6  c #3B2913",
"7  c #382718",
"8  c #3A2921",
"9  c #430201",
"0  c #4C0202",
"q  c #430A02",
"w  c #4C0B03",
"e  c #4C040A",
"r  c #440B0D",
"t  c #4C0A0B",
"y  c #46070F",
"u  c #530202",
"i  c #5B0203",
"p  c #540A03",
"a  c #54030A",
"s  c #5A030A",
"d  c #54090C",
"f  c #5B0A07",
"g  c #441401",
"h  c #421D0C",
"j  c #491704",
"k  c #490812",
"l  c #550B16",
"z  c #5A0511",
"x  c #4B1215",
"c  c #610203",
"v  c #600008",
"b  c #610510",
"n  c #47220B",
"m  c #55290A",
"M  c #49241A",
"N  c #442C1B",
"B  c #462817",
"V  c #562B19",
"C  c #4C371B",
"Z  c #543418",
"A  c #672A13",
"S  c #6B3A1A",
"D  c #742B1C",
"F  c #462D26",
"G  c #4B3829",
"H  c #543421",
"J  c #5A392A",
"K  c #5E3B31",
"L  c #4E3C30",
"P  c #6C3B23",
"I  c #6D3622",
"U  c #753D26",
"Y  c #783E32",
"T  c #5E411F",
"R  c #68421E",
"E  c #5C4838",
"W  c #554534",
"Q  c #6A4629",
"!  c #77452B",
"~  c #654B3C",
"^  c #694A36",
"/  c #754C32",
"(  c #78493A",
")  c #785539",
"_  c #7D522F",
"`  c #7D663D",
"'  c #714B42",
"]  c #6B5849",
"[  c #795A47",
"{  c #61544C",
"}  c #7A654B",
"|  c #796859",
" . c #756A5A",
".. c #757462",
"X. c #4E4A47",
"o. c #863D26",
"O. c #834229",
"+. c #804830",
"@. c #845333",
"#. c #85543C",
"$. c #925033",
"%. c #8C633F",
"&. c #885843",
"*. c #995E46",
"=. c #A05A41",
"-. c #87674A",
";. c #976649",
":. c #876C58",
">. c #936B57",
",. c #8B7359",
"<. c #9D7753",
"1. c #A46945",
"2. c #A76D55",
"3. c #A6755A",
"4. c #B67C58",
"5. c #887767",
"6. c #947262",
"7. c #977B67",
"8. c #887774",
"9. c #8D6D65",
"0. c #A57965",
"q. c #A97E6A",
"w. c #B7855C",
"e. c #898077",
"r. c #9C8979",
"t. c #97826F",
"y. c #A98565",
"u. c #BA8767",
"i. c #BB9A6C",
"p. c #BA956A",
"a. c #A78876",
"s. c #BA8D76",
"d. c #B89674",
"f. c #A8946F",
"g. c #C5865D",
"h. c #CA8B65",
"j. c #C58A6A",
"k. c #C5936A",
"l. c #CA946A",
"z. c #C18D72",
"x. c #C59374",
"c. c #CB9877",
"v. c #D59A79",
"b. c #D3946F",
"n. c #E49E77",
"m. c #C8A376",
"M. c #DAA37C",
"N. c #D7A67A",
"B. c #DCB17A",
"V. c #E4A57A",
"C. c #E7A977",
"Z. c #97908A",
"A. c #958682",
"S. c #AA9587",
"D. c #B59B86",
"F. c #B29A96",
"G. c #B7938A",
"H. c #BAA48B",
"J. c #BDA59E",
"K. c #A4A492",
"L. c #C59D81",
"P. c #D59B82",
"I. c #C7A787",
"U. c #D3A385",
"Y. c #DDAB8A",
"T. c #D8A785",
"R. c #DDB28B",
"E. c #D7B888",
"W. c #C5A995",
"Q. c #D8AF98",
"!. c #CAB698",
"~. c #DDB894",
"^. c #E5AB83",
"/. c #ECAE8A",
"(. c #E7A886",
"). c #E6B383",
"_. c #EBB383",
"`. c #ECBB8A",
"'. c #E6B788",
"]. c #F3BC8A",
"[. c #F6B98A",
"{. c #E7AD92",
"}. c #E5BD9D",
"|. c #E9B796",
" X c #F4BD94",
".X c #F7B996",
"XX c #F0A784",
"oX c #C5B9AB",
"OX c #C7BBB1",
"+X c #D2BBB4",
"@X c #E6BEA6",
"#X c #F3BDA3",
"$X c #D8C49F",
"%X c #EAC28D",
"&X c #F2C38E",
"*X c #EBC293",
"=X c #EDC39D",
"-X c #ECC99A",
";X c #EBC799",
":X c #F4C492",
">X c #F4CA94",
",X c #F4C29B",
"<X c #FBC49D",
"1X c #F5CB9C",
"2X c #FBC997",
"3X c #FAD39D",
"4X c #DDC3A7",
"5X c #D8C6BB",
"6X c #DED4B9",
"7X c #C4C0BF",
"8X c #EAC7A8",
"9X c #FDC5A5",
"0X c #F4CBA5",
"qX c #FBCBA3",
"wX c #F3CCAA",
"eX c #F7C8A8",
"rX c #EED1A8",
"tX c #FCD3A5",
"yX c #FED4AC",
"uX c #F8D7A8",
"iX c #E9CBB1",
"pX c #F7CEB5",
"aX c #E6D4B9",
"sX c #FED2B3",
"dX c #FAD7BA",
"fX c #FFE3AA",
"gX c #FFE5B4",
"hX c #FCE4BB",
"jX c #D8C9C3",
"kX c #DED2C4",
"lX c #E2CBC3",
"zX c #F7D4C3",
"xX c #EDDACD",
"cX c #FEE8C4",
"vX c #FFF4CC",
"bX c #FFEDD3",
"nX c #FAE4D8",
"mX c #FFF7D8",
"MX c #ECE3C4",
"NX c #FDF7EB",
"BX c #FFFEFD",
/* pixels */
"                                                                                                                                ",
"                                                                                                                                ",
"                                                                                                                                ",
"                                                                                                                                ",
"                                                                                                                                ",
"                                                                                                                                ",
"                                                        1 1 1 h h 2 , ,                                                         ",
"                                                  J ^ ) q.s.x.U.U.U.U.s.) Q J                                                   ",
"                                              K ^ q.u.k.,X*X-X-X,X9X X X|.{.L.[ X                                               ",
"                                            ' 0.P.,X^.:XgX>X*X'.:X_.].M.[.2X Xc.y.:.                                            ",
"                                          B + T.tXfXfX3X3X%X*X%X'.>X_._.n.C.[.].yX%.,                                           ",
"                                        ~ s.d.R.1X`.>X2X).:X X`.*X).&X].[.C.[.[.].T.y.}                                         ",
"                                        + }.qX,XM.h.b.4.h./..X.X X X_.g.h.h.h.V.].<XR.# 7                                       ",
"                                        < Y.<Xu.z.{.*.j (.h.g.V.C.4.j.Y.m g x.U.u.T.|.j N                                       ",
"                                    ^ Q < Y.=X}.a.H K n Z x.`.].:X).d.Z 5 5 H 7.}.|.Y.g n ~                                     ",
"                                      y.< N.qXm 6.nXnXxX> d.-XtX3X*XrXbXL 4 kXt.# <.|.j m   ] 7                                 ",
"                                      I.= B.-Xi.iXNXkXA.6 L.;XgXgX;XI.:.{ X.NXaXf.E.B.- m   [ X                                 ",
"                                  C     y.R.E.gXcXbXOX .~ I.0Xm.m.0XD.G e.Z.xXbXvXuXN.w.y.  ~ .                                 ",
"                                    E :.zX&.J 4XhXcXMX6XW.~.,XV.V.<X}.!.6X5XzXzXwXy.S eXiX~                                     ",
"                                        M W.4XC -.rX$XdXdX~.M.C.n.h.N.wXvXmX8X-.$ >.Q.M E                                       ",
"                                        8.NXNXW.3._ 3.{.#X{.^._.XXn.(.,X~.~.) ,.a.xX  8.Z.                                      ",
"                                          5.W ,.Q & A U 2.P.V./.(.(.v.4.R Q , Q 7.] 5.                                          ",
"                                        r.:.} ) H h q w D o.$.=.1.O.$.A j - h H ~ ~ [ r.K.                                      ",
"                                      e.t.dXdXcXq.+ t 0 0 u u 0 9 0 0 u 0 q X 6.nXzX@X:.| ..                                    ",
"                                    . E bXiX8Xd.K + * e u u f u p u i u a k + ~ a.I.pXsX8XX                                     ",
"                                    o ~ aX-.-.= 2 ; k e s s u a u i u a z k x ; X n <.R.U.<                                     ",
"                                    # Q iX# X = < r d u a e 0 e 0 0 e 9 d d l 9 j & + N.x.- +X                                  ",
"                                    $ / pXn < @ < - 0 0 9 0 0 0 0 9 q * 0 0 9 e & - S |.P.- +X                                  ",
"                                    = ! 9X#.( & + & 9 9 9 0 u i i 0 9 - * & & & @ I 4.9X{.= +X                                  ",
"                                    @ ! 9X/.{.&.1 + * e 0 u u u i u 0 w 9 - + J 0.u.(./.T.< OXBX                                ",
"                                    < @.2Xb.M.3.J X y l u u p u u u i u d x X ' P.b.n.V.M.h oXNX                                ",
"                                 .E pX{.'.w.4.#.M + k e a p u f 0 u i v i t @ M Y =.h./.T.wX[ > OX                              ",
"                                } T 9X(.s.&.' + & q p 0 0 p i u u 0 i i p 0 g & + V 3.z.j.<X@.$ H.                              ",
"                            5.C f.U.1.2.0.2 @ ; w w 0 u p u i i u u s i p 0 p q * ; 2 0.3.;.v.,X-.}                             ",
"                          5 a.8X8X X.Xj.@ + @ e p p u u u p s s a a s i p 0 d a l : X X , @X|.9X@Xf.X {                         ",
"                          > D.iXc.l.9Xu.+ x l z u i p 0 0 9 e e e 0 0 u p u s a a k % . # @XP.j.|.L.+ {                         ",
"                          > H.mX3.$. X4.+ r e z i u u d 9 & @ & @ @ & 9 w t a s b a 1 . # D.*.o.j.q.$ ]                         ",
"                          > H.bXc.1.1.! + r l a i u a a e * + X X $ * w w p a s i e + X o -.4.4.v.u.$ ]                         ",
"                          . !.mXyXk.@.U + r l a u i s u e y % X + ; 0 f i i i v i 0 - . # ^ c..X#X3.$ E                         ",
"                            5.^ d.R.x.>.@ 3 r t u u u a u 9 @ + + q 0 c c c i i u t - X # y.|.sX>.[                             ",
"                                ) < V h % + + * w p u f u 9 ; + + t u i i i c u d * X # $ B M 1 S.                              ",
"                                  S.F.F.F.. . 1 9 0 0 9 p w * + @ & 9 p u p 0 w x + X F.F.F.F.S.                                ",
"                                        BX7XOXB #.T.c.Y.l.4.z.V Z I.s.s.c.l.j.! @ 9.jX                                          ",
"                                          BXNXC ;.sXyXcX:XM.{.! / dX}.=XqX>X`.%.@ a.                                            ",
"                                        BX8.} 0.v.|.*X*X[.v.v.m P eX,X X%X)._.k.2.>.5.                                          ",
"                                          F # Q.dXyXyX1X[.1.&.>.0.0.u.1X3XuXtX<X.X;.5                                           ",
"                                          E , T.U.u.p.u.(.O.X xXlXX ! 0Xp.p.w.v.9X2.B                                           ",
"                                          J , I.E.i.i.k./.U $ 5X5X# / 0Xi.m.k.v..X;.M                                           ",
"                                          L > !.rX;X,X.X(.+.# 5X5XX / 0X;X>X:XB.M.&.F                                           ",
"                                          8 . aXhX~.:X[.(.I # 5XkX. ^ eXyX3X:X>XeX>.o                                           ",
"                                          8.| f.I.;X X/.{.( $ 5XjXX ) sXuXuX1Xi.y.6.A.                                          ",
"                                              5 ` uX`./.P.P X lX5XX / 0XwXrXrX;.+ a.                                            ",
"                                              B ) 3X]._.b.U + jXaX# Q U.dXcXyX-.+ a.                                            ",
"                                            S.,.m.uX2X_.v.! + lX5XX / T.=XtX-Xi.) 0.J.                                          ",
"                                          8 . d.rXfX2X).M.S # 6XaX. T }.;X*X%XN.m.) $                                           ",
"                                          :.-.<.m.-X&X).T.;.^ D.D.E y.cXtX3X>Xk.1.@.[ J.                                        ",
"                                        +   pXdX0X X<X.X.X#XdXJ J dX8XyX,X<X X_.v.Y.G.$ 7                                       ",
"                                        # 6.0./ #.;.2.z.I &.>.H V >.&.P u.z.;.@.S &.6.2 G                                       ",
"                                        7 7 N 5 B B B M M N 6 7 N 5 N 5 B B 6 6 B F 3 F W                                       ",
"                                                                                                                                ",
"                                                                                                                                ",
"                                                                                                                                ",
"                                                                                                                                ",
"                                                                                                                                "
};
