/* XPM */
static char *xpm_[] = {
/* columns rows colors chars-per-pixel */
"64 64 233 2 ",
"   c #573609",
".  c #54381A",
"X  c #512E0E",
"o  c #663A0B",
"O  c #683B03",
"+  c #743B00",
"@  c #753D07",
"#  c #633411",
"$  c #623B13",
"%  c #633418",
"&  c #642E12",
"*  c #5A3C20",
"=  c #583B29",
"-  c #4F3820",
";  c #613F24",
":  c #5C4A1C",
">  c #694303",
",  c #744501",
"<  c #7C4300",
"1  c #734A03",
"2  c #784807",
"3  c #79510B",
"4  c #6A451A",
"5  c #744915",
"6  c #7C4A19",
"7  c #734919",
"8  c #6E5817",
"9  c #7B5212",
"0  c #7A571A",
"q  c #5A4923",
"w  c #574630",
"e  c #664B26",
"r  c #7A4E24",
"t  c #695324",
"y  c #79562A",
"u  c #6B5435",
"i  c #6C563C",
"p  c #685637",
"a  c #735B3B",
"s  c #7A5934",
"d  c #624C34",
"f  c #7A6633",
"g  c #685845",
"h  c #7A5A45",
"j  c #786449",
"k  c #7B6952",
"l  c #7B704D",
"z  c #7C6860",
"x  c #885605",
"c  c #955808",
"v  c #865618",
"b  c #925C17",
"n  c #854C0D",
"m  c #8D6103",
"M  c #886419",
"N  c #9B681B",
"B  c #966913",
"V  c #B46C0C",
"C  c #B8780C",
"Z  c #A76A1D",
"A  c #A87417",
"S  c #B77617",
"D  c #A5620B",
"F  c #81532A",
"G  c #975B26",
"H  c #855C32",
"J  c #9D6224",
"K  c #98692A",
"L  c #8C603B",
"P  c #976834",
"I  c #9C793C",
"U  c #9B7223",
"Y  c #A86C27",
"T  c #B96E21",
"R  c #AA752A",
"E  c #B37C23",
"W  c #B67528",
"Q  c #AA7734",
"!  c #B87835",
"~  c #C47727",
"^  c #C37B34",
"/  c #D27F31",
"(  c #83694B",
")  c #887149",
"_  c #947544",
"`  c #826A53",
"'  c #86745A",
"]  c #967959",
"[  c #AC7C49",
"{  c #8B7A67",
"}  c #927E63",
"|  c #BE880E",
" . c #BE8B15",
".. c #B88729",
"X. c #A68438",
"o. c #BA8835",
"O. c #BF9436",
"+. c #AF8928",
"@. c #C88819",
"#. c #D5831D",
"$. c #CC8F23",
"%. c #C68927",
"&. c #D68A27",
"*. c #C99727",
"=. c #D59727",
"-. c #C58C3C",
";. c #C48634",
":. c #D48432",
">. c #D78836",
",. c #C6973A",
"<. c #D8973A",
"1. c #E09D2E",
"2. c #EA9B38",
"3. c #D4A128",
"4. c #DCA33D",
"5. c #DEA938",
"6. c #CCA030",
"7. c #EBAA2E",
"8. c #EAAA2E",
"9. c #E3AD35",
"0. c #EAAA3B",
"q. c #E8A636",
"w. c #F1AD35",
"e. c #EDB53C",
"r. c #E8B338",
"t. c #F3B73B",
"y. c #F0AC2F",
"u. c #F8C93C",
"i. c #FFD23E",
"p. c #93835E",
"a. c #978351",
"s. c #AA8A48",
"d. c #B58A45",
"f. c #BA954A",
"g. c #B5985A",
"h. c #AF9653",
"j. c #98866D",
"k. c #9C8E77",
"l. c #A89369",
"z. c #AE9170",
"x. c #B7A466",
"c. c #CC9746",
"v. c #D59D47",
"b. c #C49756",
"n. c #D19758",
"m. c #E69B40",
"M. c #CAA349",
"N. c #D3A24C",
"B. c #D6AB46",
"V. c #C9A753",
"C. c #D3A858",
"Z. c #DFB752",
"A. c #DAB04C",
"S. c #EBA846",
"D. c #F4AF4A",
"F. c #E6B448",
"G. c #F2BD44",
"H. c #FDBD46",
"J. c #F3BD4A",
"K. c #FDBE4C",
"L. c #F7B542",
"P. c #EEBC53",
"I. c #E7B858",
"U. c #F3B758",
"Y. c #CC9B61",
"T. c #C6A866",
"R. c #D4A962",
"E. c #D6B667",
"W. c #C7A978",
"Q. c #D0AD72",
"!. c #D9BA75",
"~. c #EABE67",
"^. c #F0B969",
"/. c #E8BF7F",
"(. c #EFC14C",
"). c #FDCC43",
"_. c #F2C34D",
"`. c #FEC34C",
"'. c #FDCC4C",
"]. c #F8C846",
"[. c #FDD24D",
"{. c #EDC15A",
"}. c #E4C05F",
"|. c #FBC553",
" X c #FDCB53",
".X c #FCCD5C",
"XX c #F1C357",
"oX c #FFD251",
"OX c #FED35C",
"+X c #FFDA5E",
"@X c #E5C36A",
"#X c #F1C663",
"$X c #FFCD62",
"%X c #F6C965",
"&X c #FED463",
"*X c #FFDA64",
"=X c #FED46C",
"-X c #FFDA6C",
";X c #F7D367",
":X c #E7C579",
">X c #FDCD7B",
",X c #F8CB76",
"<X c #FED473",
"1X c #FFDD73",
"2X c #FED47C",
"3X c #FEDB7A",
"4X c #F6D37C",
"5X c #FFE274",
"6X c #FFE77B",
"7X c #FFE36F",
"8X c #A19180",
"9X c #CBB084",
"0X c #EACA88",
"qX c #F8C883",
"wX c #FFDD83",
"eX c #FEDB8D",
"rX c #FAD589",
"tX c #FCD894",
"yX c #EFC997",
"uX c #FFE384",
"iX c #FFE38A",
"pX c #FFE888",
"aX c #FFE293",
"sX c #FEE49B",
"dX c #FFEA9C",
"fX c #EACEA5",
"gX c #F4DBAB",
"hX c #F6DCA6",
"jX c #F3D9A8",
"kX c #FFE2A2",
"lX c #FFEBAD",
"zX c #FFEAB5",
"xX c None",
/* pixels */
"xXxXxXxXxXxXxXxXxXxXxXxXxXxXxXxXxXxXxXxXxXxXxXxXxXxXxXxXxXxXxXxXxXxXxXxXxXxXxXxXxXxXxXxXxXxXxXxXxXxXxXxXxXxXxXxXxXxXxXxXxXxXxXxX",
"xXxXxXxXxXxXxXxXxXxXxXxXxXxXxXxXxXxXxXxXxXxXxXxXxXxXxXxXxXxXxXxXxXxXxXxXxXxXxXxXxXxXxXxXxXxXxXxXxXxXxXxXxXxXxXxXxXxXxXxXxXxXxXxX",
"xXxXxXxXxXxXxXxXxXxXxXxXxXxXxXxXxXxXxXxXxXxXxXxXxXxXxXxXxXxXxXxXxXxXxXxXxXxXxXxXxXxXxXxXxXxXxXxXxXxXxXxXxXxXxXxXxXxXxXxXxXxXxXxX",
"xXxXxXxXxXxXxXxXxXxXxXxXxXxXxXxXxXxXxXxXxXxXxXxXxXxXxXxXxXxXxXxXxXxXxXxXxXxXxXxXxXxXxXxXxXxXxXxXxXxXxXxXxXxXxXxXxXxXxXxXxXxXxXxX",
"xXxXxXxXxXxXxXxXxXxXxXxXxXxXxXxXxXxXxXxXxXxXxXxXxXxXxXxXxXxXxXxXxXxXxXxXxXxXxXxXxXxXxXxXxXxXxXxXxXxXxXxXxXxXxXxXxXxXxXxXxXxXxXxX",
"xXxXxXxXxXxXxXxXxXxXxXxXxXxXxXxXxXxXxXxXxXxXxXxXxXxXxXxXxXxXxXxXxXxXxXxXxXxXxXxXxXxXxXxXxXxXxXxXxXxXxXxXxXxXxXxXxXxXxXxXxXxXxXxX",
"xXxXxXxXxXxXxXxXxXxXxXxXxXxXxXxXxXxXxXxXxXxXxXxXxXxXxXxXxXxXxXxXxXxXxXxXxXxXxXxXxXxXxXxXxXxXxXxXxXxXxXxXxXxXxXxXxXxXxXxXxXxXxXxX",
"xXxXxXxXxXxXxXxXxXxXxXxXxXxXxXxXxXxXxXxXxXxXxXxXxXxXxXxXxXxXxXxXxXxXxXxXxXxXxXxXxXxXxXxXxXxXxXxXxXxXxXxXxXxXxXxXxXxXxXxXxXxXxXxX",
"xXxXxXxXxXxXxXxXxXxXxXxXxXxXxXxXxXxXxXxXxXxXxXxXxXxXxXxXxXxXxXxXxXxXxXxXxXxXxXxXxXxXxXxXxXxXxXxXxXxXxXxXxXxXxXxXxXxXxXxXxXxXxXxX",
"xXxXxXxXxXxXxXxXxXxXxXxXxXxXxXxXxXxXxXxXxXxXxXxXxXxXxXxXxXxXxXxXxXxXxXxXxXxXxXxXxXxXxXxXxXxXxXxXxXxXxXxXxXxXxXxXxXxXxXxXxXxXxXxX",
"xXxXxXxXxXxXxXxXxXxXxXxXxXxXxXxXxXxXxXxXxXxXxXxXxXxXxXxXxXxXxXxXxXxXxXxXxXxXxXxXxXxXxXxXxXxXxXxXxXxXxXxXxXxXxXxXxXxXxXxXxXxXxXxX",
"xXxXxXxXxXxXxXxXxXxXxXxXxXxXxXxXxXxXxXxXxXxXxXxXxXxXxXxXxXxXxXxXxXxXxXxXxXxXxXxXxXxXxXxXxXxXxXxXxXxXxXxXxXxXxXxXxXxXxXxXxXxXxXxX",
"xXxXxXxXxXxXxXxXxXxXxXxXxXxXxXxXxXxXxXxXxXxXxXxXxXxXxXxXxXxXxXxXxXxXxXxXxXxXxXxXxXxXxXxXxXxXxXxXxXxXxXxXxXxXxXxXxXxXxXxXxXxXxXxX",
"xXxXxXxXxXxXxXxXxXxXxXxXxXxXxXxXxXxXxXxXxXxXxXxXxXxXxXxXxXxXxXxXxXxXxXxXxXxXxXxXxXxXxXxXxXxXxXxXxX{ xXxXxXxXxXxXxXxXxXxXxXxXxXxX",
"xXxXxXxXxXxXxXxXxXxXxXxXxXxXxXxXxXxXxXxXxXxXxXxXxXxXxXxXxXxXxXxXxXxXxXxXxXxXxXxXxXxXxXxXxXxXxXxXi ' w xXxXxXxXxXxXxXxXxXxXxXxXxX",
"xXxXxXxXxXxXxXxXxXxXxXxXxXxXxXxXxXxXxXxXxXxXxXxXxXxXxXxXxXxXxXxXxXxXxXxXxXxXxXxXxXxXxXxXxXxXxXg - ' q q xXxXxXxXxXxXxXxXxXxXxXxX",
"xXxXxXxXxXxXxXxXxXxXxXxXxXxXxXxXxXxXxXxXxXxXxXxXxXxXxXxXxXxXxXxXxXxXxXxXxXxXxXxXxXxXxXxXxXxX} r y   s.l.k xXxXxXxXxXxXxXxXxXxXxX",
"xXxXxXxXxXxXxXxXxXxXxXxXxXxXxXxXxXxXxXxXxXxXxXxXxXxXxXxXxXxXxXxXxXxXxXxXxXxXxXxXxXxXxXxXxX} 7 Y.[ 5 !.T.k xXxXxXxXxXxXxXxXxXxXxX",
"xXxXxXxXxXxXxXxXxXxXxXxXxXxXxXxXxXxXxXxXxXxXxXxXxXxXxXxXxXxXxXxXxXxXxXxXxXxXxXxXxXxXxXxX( 4 g.E.1 0 @Xx.k xXxXxXxXxXxXxXxXxXxXxX",
"xXxXxXxXxXxXxXxXxXxXxXxXxXxXxXxXxXxXxXxXxXxXxXxXxXxXxXxXxXxXxXxXxXxXxXxXxXxXxXxXxXxXxXa F b.:X0 > K @Xg.' xXxXxXxXxXxXxXxXxXxXxX",
"xXxXxXxXxXxXxXxXxXxXxXxXxXxXxXxXxXxXxXxXxXxXxXxXxXxXxXxXxXxXxXxXxXxXxXxXxXxXxXxXxXxXt v ! n.T.> > N rXh.j.xXxXxXxXxXxXxXxXxXxXxX",
"xXxXxXxXxXxXxXxXxXxXxXxXxXxXxXxXxXxXxXxXxXxXxXxXxXxXxXxXxXxXxXxXxXxXxXxXxXxXxXxXxXe v Q ^ qXQ.X O +.4Xx.j xXxXxXxXxXxXxXxXxXxXxX",
"xXxXxXxXxXxXxXxXxXxXxXxXxXxXxXxXxXxXxXxXxXxXxXxXxXxXxXxXxXxXxXxXxXxXxXxXxXxXxXxXa 6 ;.S.^.yXI 1 o.I.Z.:Xu xXxXxXxXxXxXxXxXxXxXxX",
"xXxXxXxXxXxXxXxXxXxXxXxXxXxXxXxXxXxXxXxXxXxXxXxXxXxXxXxXxXxXxXxXxXxXxXxXxXxXxXxX$ Q 2.U.rXs.1 O.P..XB.E.l.z xXxXxXxXxXxXxXxXxXxX",
"xXxXxXxXxXxXxXxXxXxXxXxXxXxXxXxXxXxXxXxXxXxXxXxXxXxXxXxXxXxXxXxXxXxXxXxXxXxXxX` n ! m.,XC.O ,.(._.OX;X:XfXg xXxXxXxXxXxXxXxXxXxX",
"xXxXxXxXxXxXxXxXxXxXxXxXxXxXxXxXxXxXxXxXxXxXxXxXxXxXxXxXxXxXxXxXxXxXxXxXxXxXxX  N >.^.>XM N (.u.[.+X;XeXgXk xXxXxXxXxXxXxXxXxXxX",
"xXxXxXxXxXxXxXxXxXxXxXxXxXxXxXxXxXxXxXxXxXxXxXxXxXxXxXxXxXxXxXxXxXxXxXxXxXxXu v %.0.2XR.> B.[.i.[.*X3XsXzX} xXxXxXxXxXxXxXxXxXxX",
"xXxXxXxXxXxXxXxXxXxXxXxXxXxXxXxXxXxXxXxXxXxXxXxXxXxXxXxXxXxXxXxXxXxXxXxXxX` o R 3.G.eXR x (.u.i.+X7XpX0XjX] xXxXxXxXxXxXxXxXxXxX",
"xXxXxXxXxXxXxXxXxXxXxXxXxXxXi - d j.xXxXxXxXxXxXxXxXxXxXxXxXxXxXxXxXxXxXk.o ! <.9.OXrX3  .].[.[.-XpXsXx.gXj xXxXxXxXxXxXxXxXxXxX",
"xXxXxXxXxXxXxXxXxXxXxXxXxXj . s x.I u ] xXxXxXxXxXxXxXxXxXxXxXxXxXxXxXxX% Q *.5.XXpXR.O 9.).'..X3XdXyXx.gXi xXxXxXxXxXxXxXxXxXxX",
"xXxXxXxXxXxXxXxXxXxXxXxXxX* H [ Q v.C.Q 0 t j.xXxXxXxXxXxXxXxXxXxXxXxXe b $.9._.wXtXK b ].).'.&XwXhXQ.9XfXg xXxXxXxXxXxXxXxXxXxX",
"xXxXxXxXxXxXxXxXxXxXxXxXxXs H b.c.E c.,X:XV.s.y t f p.k.k.8XxXxXxXk.e 3 ;.0.t.-XsXQ.+ c.u.u.OX3XtXtXg.fXx.j xXxXxXxXxXxXxXxXxXxX",
"xXxXxXxXxXxXxXxXxXxXxXxX` e O v ! o.;.-.N.^.{.{.A.,.+.X._ _ ) a X   3 O.5.J.=XuX4XM m J.].[.3XtXeX:Xs.gXl.xXxXxXxXxXxXxXxXxXxXxX",
"xXxXxXxXxXxXxXxXxXxXxXxXs P K b , < c Y E v.F.B.A.B.N.b.b.X.M 1 9 U ,.F..X1X2X4Xo., 6.[.].+XuXaXrXf.!.zX) xXxXxXxXxXxXxXxXxXxXxX",
"xXxXxXxXxXxXxXxXxXxXxXxXP C.U.U.~.M.U 3 1 3 1 3 1 1 5 3 3 B +.6.0.0._.*X6X<Xc.d.< E (.[.;X;X6X1X@Xf.kXjXp xXxXxXxXxXxXxXxXxXxXxX",
"xXxXxXxXxXxXxXxXxXxXxX$ Q ;.@.$.A.#X2XqX/.R.V.C.E.!.0XqX4X<XOX'.`.+XOX&XZ.,.! + c F. XOX5X5X;X<XM.rXlX9Xi xXxXxXxXxXxXxXxXxXxXxX",
"xXxXxXxXxXxXxXxXxXxXxXxXQ :.&.~ S S <.U.|.$X$X.X X*X=X&XOX X).'.U.q.%.A o.W < c B.P.=X1X-X-X3XN.V.dXkXl.k xXxXxXxXxXxXxXxXxXxXxX",
"xXxXxXxXxXxXxXxXxXxXxXxXG T 1.2.<.~ V V C @.1.7.t.e.e.e.e.8.7.L.%.;.,.v.Z + D ,.P.1X3X1X*X=X~.O.4XdXkXa xXxXxXxXxXxXxXxXxXxXxXxX",
"xXxXxXxXxXxXxXxXxXxXxXxX% J ^ / / :.&.&.1.#.#.&.2.0.8.@.| C $.S.v.n.R x 1 A Z.#X<XwX1X1X=X#XO.@XiXkX9Xp xXxXxXxXxXxXxXxXxXxXxXxX",
"xXxXxXxXxXxXxXxXxXxXxXxXxX& G [ ^ Y T ~ :.:.>.:.2.D.S.4.4.<.;.A x + 1 N ,.}.OX-X<X=X.X.XXXO.Z.3XiXtX) xXxXxXxXxXxXxXxXxXxXxXxXxX",
"xXxXxXxXxXxXxXxXxXxXxXxXxXxX% L H 7 r n F G Y T o.o.R U x 1 1 x A -.F.P.=X5X-X].[.].[.(.*.Z.;XuXiXx.e xXxXxXxXxXxXxXxXxXxXxXxXxX",
"xXxXxXxXxXxXxXxXxXxXxXxXxXxXxX= * X % @ @ + + @ + , < x N +.A.I.$X$X*X5X-X&X X'.).u.r.*.F.1XpX3X!.: xXxXxXxXxXxXxXxXxXxXxXxXxXxX",
"xXxXxXxXxXxXxXxXxXxXxXxXxXxXxXxXX & % ! W &.2.=.@.3.0.J. X XOXOXOXOX'.`.t.w.9.5.3. .6. X5X*X7X}.t xXxXxXxXxXxXxXxXxXxXxXxXxXxXxX",
"xXxXxXxXxXxXxXxXxXxXxXxXxXxXxXxXh & P Z V q.2.w.K.`. X`.'.`.H.H.G.(.L.y.y.7.3.@. .r.OX7X-X;XV.8 p.xXxXxXxXxXxXxXxXxXxXxXxXxXxXxX",
"xXxXxXxXxXxXxXxXxXxXxXxXxXxXxXxXxX% G b D V / T T T E %.$.$.&.=.=.=.&.=.0.e.9.9.oX*X+X*X#Xs.t xXxXxXxXxXxXxXxXxXxXxXxXxXxXxXxXxX",
"xXxXxXxXxXxXxXxXxXxXxXxXxXxXxXxXxX; 7 b Y ~ T ~ ~ T S C C C @.@.@.@.$.q.L.J. X*X*X=XXX,.0 t xXxXxXxXxXxXxXxXxXxXxXxXxXxXxXxXxXxX",
"xXxXxXxXxXxXxXxXxXxXxXxXxXxXxXxXxXxX= F J ^ / &.2.2.q.y.q.7.w.t.L.`.'.'. XoX X|.XXA.X.: l xXxXxXxXxXxXxXxXxXxXxXxXxXxXxXxXxXxXxX",
"xXxXxXxXxXxXxXxXxXxXxXxXxXxXxXxXxXxXxX= @ G ! >.2.2.D.L.t.`.K.H.|.|.`._._._.P.F.o.3 q xXxXxXxXxXxXxXxXxXxXxXxXxXxXxXxXxXxXxXxXxX",
"xXxXxXxXxXxXxXxXxXxXxXxXxXxXxXxXxXxXxXxXxX. 4 F J Y ! ;.>.<.0.S.0.S.S.c.,.d.K 0 t xXxXxXxXxXxXxXxXxXxXxXxXxXxXxXxXxXxXxXxXxXxXxX",
"xXxXxXxXxXxXxXxXxXxXxXxXxXxXxXxXxXxXxXxXxXxXxXxX; $ o o 2 v b J Y Z b v > 4 l xXxXxXxXxXxXxXxXxXxXxXxXxXxXxXxXxXxXxXxXxXxXxXxXxX",
"xXxXxXxXxXxXxXxXxXxXxXxXxXxXxXxXxXxXxXxXxXxXxXxXxXxXxXxXxXj h a i i k { xXxXxXxXxXxXxXxXxXxXxXxXxXxXxXxXxXxXxXxXxXxXxXxXxXxXxXxX",
"xXxXxXxXxXxXxXxXxXxXxXxXxXxXxXxXxXxXxXxXxXxXxXxXxXxXxXxXxXxXxXxXxXxXxXxXxXxXxXxXxXxXxXxXxXxXxXxXxXxXxXxXxXxXxXxXxXxXxXxXxXxXxXxX",
"xXxXxXxXxXxXxXxXxXxXxXxXxXxXxXxXxXxXxXxXxXxXxXxXxXxXxXxXxXxXxXxXxXxXxXxXxXxXxXxXxXxXxXxXxXxXxXxXxXxXxXxXxXxXxXxXxXxXxXxXxXxXxXxX",
"xXxXxXxXxXxXxXxXxXxXxXxXxXxXxXxXxXxXxXxXxXxXxXxXxXxXxXxXxXxXxXxXxXxXxXxXxXxXxXxXxXxXxXxXxXxXxXxXxXxXxXxXxXxXxXxXxXxXxXxXxXxXxXxX",
"xXxXxXxXxXxXxXxXxXxXxXxXxXxXxXxXxXxXxXxXxXxXxXxXxXxXxXxXxXxXxXxXxXxXxXxXxXxXxXxXxXxXxXxXxXxXxXxXxXxXxXxXxXxXxXxXxXxXxXxXxXxXxXxX",
"xXxXxXxXxXxXxXxXxXxXxXxXxXxXxXxXxXxXxXxXxXxXxXxXxXxXxXxXxXxXxXxXxXxXxXxXxXxXxXxXxXxXxXxXxXxXxXxXxXxXxXxXxXxXxXxXxXxXxXxXxXxXxXxX",
"xXxXxXxXxXxXxXxXxXxXxXxXxXxXxXxXxXxXxXxXxXxXxXxXxXxXxXxXxXxXxXxXxXxXxXxXxXxXxXxXxXxXxXxXxXxXxXxXxXxXxXxXxXxXxXxXxXxXxXxXxXxXxXxX",
"xXxXxXxXxXxXxXxXxXxXxXxXxXxXxXxXxXxXxXxXxXxXxXxXxXxXxXxXxXxXxXxXxXxXxXxXxXxXxXxXxXxXxXxXxXxXxXxXxXxXxXxXxXxXxXxXxXxXxXxXxXxXxXxX",
"xXxXxXxXxXxXxXxXxXxXxXxXxXxXxXxXxXxXxXxXxXxXxXxXxXxXxXxXxXxXxXxXxXxXxXxXxXxXxXxXxXxXxXxXxXxXxXxXxXxXxXxXxXxXxXxXxXxXxXxXxXxXxXxX",
"xXxXxXxXxXxXxXxXxXxXxXxXxXxXxXxXxXxXxXxXxXxXxXxXxXxXxXxXxXxXxXxXxXxXxXxXxXxXxXxXxXxXxXxXxXxXxXxXxXxXxXxXxXxXxXxXxXxXxXxXxXxXxXxX",
"xXxXxXxXxXxXxXxXxXxXxXxXxXxXxXxXxXxXxXxXxXxXxXxXxXxXxXxXxXxXxXxXxXxXxXxXxXxXxXxXxXxXxXxXxXxXxXxXxXxXxXxXxXxXxXxXxXxXxXxXxXxXxXxX",
"xXxXxXxXxXxXxXxXxXxXxXxXxXxXxXxXxXxXxXxXxXxXxXxXxXxXxXxXxXxXxXxXxXxXxXxXxXxXxXxXxXxXxXxXxXxXxXxXxXxXxXxXxXxXxXxXxXxXxXxXxXxXxXxX",
"xXxXxXxXxXxXxXxXxXxXxXxXxXxXxXxXxXxXxXxXxXxXxXxXxXxXxXxXxXxXxXxXxXxXxXxXxXxXxXxXxXxXxXxXxXxXxXxXxXxXxXxXxXxXxXxXxXxXxXxXxXxXxXxX",
"xXxXxXxXxXxXxXxXxXxXxXxXxXxXxXxXxXxXxXxXxXxXxXxXxXxXxXxXxXxXxXxXxXxXxXxXxXxXxXxXxXxXxXxXxXxXxXxXxXxXxXxXxXxXxXxXxXxXxXxXxXxXxXxX"
};
