/* XPM */
static char *_935f11ca4594046d5bd2add2d3d11e1JfT0cvtPusESMYNo[] = {
/* columns rows colors chars-per-pixel */
"64 64 248 2 ",
"   c None",
".  c #192857",
"X  c #033858",
"o  c #11214B",
"O  c #2A3154",
"+  c #1B3677",
"@  c #0F3B71",
"#  c #293E75",
"$  c #2D3A6B",
"%  c #02445E",
"&  c #114959",
"*  c #064866",
"=  c #174A68",
"-  c #08516A",
";  c #19586C",
":  c #0C4973",
">  c #184B77",
",  c #0D5677",
"<  c #175778",
"1  c #23496C",
"2  c #2B4374",
"3  c #344678",
"4  c #245C7D",
"5  c #275576",
"6  c #2D576F",
"7  c #1C647E",
"8  c #26647A",
"9  c #38647A",
"0  c #2D7177",
"q  c #465170",
"w  c #1B3D86",
"e  c #243D8B",
"r  c #1A458A",
"t  c #1A478B",
"y  c #1A5A88",
"u  c #1D4690",
"i  c #1C5691",
"p  c #294988",
"a  c #265B86",
"s  c #36598A",
"d  c #254C95",
"f  c #2B5795",
"g  c #345598",
"h  c #1A6787",
"j  c #18698A",
"k  c #256A8A",
"l  c #286788",
"z  c #336D8B",
"x  c #386789",
"c  c #28738A",
"v  c #39758C",
"b  c #286B94",
"n  c #396997",
"m  c #2C7293",
"M  c #2C749B",
"N  c #267795",
"B  c #347494",
"V  c #35749C",
"C  c #3C7D9D",
"Z  c #357898",
"A  c #365CA9",
"S  c #2B58A1",
"D  c #3B68A9",
"F  c #2C79A3",
"G  c #3779A4",
"H  c #3D69B3",
"J  c #3C7AB4",
"K  c #2C6DA3",
"L  c #446C89",
"P  c #446C9B",
"I  c #466A96",
"U  c #477799",
"Y  c #577D9B",
"T  c #517289",
"R  c #787C99",
"E  c #637F94",
"W  c #466AAB",
"Q  c #4577A6",
"!  c #5C7CA6",
"~  c #5379AA",
"^  c #4474B2",
"/  c #4979B8",
"(  c #557EB6",
")  c #476EB3",
"_  c #6C7CA4",
"`  c #497BC2",
"'  c #3A829B",
"]  c #2C8AA6",
"[  c #3C83A2",
"{  c #3787A8",
"}  c #3B90AC",
"|  c #3797B4",
" . c #3290AE",
".. c #3DA3BA",
"X. c #36A4B9",
"o. c #2EA1B4",
"O. c #47899A",
"+. c #55879C",
"@. c #498A8D",
"#. c #6A869D",
"$. c #4384A4",
"%. c #4584AE",
"&. c #4B8BAC",
"*. c #4986A8",
"=. c #5687A9",
"-. c #4D92AC",
";. c #4794A8",
":. c #5695AD",
">. c #438DB4",
",. c #4D8CB3",
"<. c #4785B7",
"1. c #5889B8",
"2. c #4B93BB",
"3. c #459BBB",
"4. c #4A9ABB",
"5. c #4796B4",
"6. c #5293B4",
"7. c #5B9AB5",
"8. c #549ABA",
"9. c #5898B9",
"0. c #648AA6",
"q. c #7888A6",
"w. c #7994AB",
"e. c #6399BB",
"r. c #7592AE",
"t. c #48A2BC",
"y. c #57A3BB",
"u. c #64A1BE",
"i. c #69A5B8",
"p. c #68A9AB",
"a. c #4C86C5",
"s. c #568BC9",
"d. c #4C9BC2",
"f. c #5A94C3",
"g. c #539DC3",
"h. c #5A9CC5",
"j. c #5B98C9",
"k. c #5B97D3",
"l. c #598BD0",
"z. c #629BC5",
"x. c #6798C9",
"c. c #6498D5",
"v. c #6187CE",
"b. c #4BA3C3",
"n. c #4CACCB",
"m. c #49A9C6",
"M. c #53ACCB",
"N. c #57A6C7",
"B. c #4BB4CC",
"V. c #49B7CB",
"C. c #53B3CD",
"Z. c #56B6CC",
"A. c #59ACD3",
"S. c #4EB7D2",
"D. c #54B5D4",
"F. c #5CB3D2",
"G. c #54BDD5",
"H. c #54BDDA",
"J. c #5BBDDB",
"K. c #5BB7D8",
"L. c #63A3C3",
"P. c #62ABC3",
"I. c #63A5CB",
"U. c #64ABCB",
"Y. c #6BADCC",
"T. c #6BA6C8",
"R. c #63B2CC",
"E. c #6BB5CB",
"W. c #75B8C9",
"Q. c #69ABD5",
"!. c #62B4D3",
"~. c #67B8DA",
"^. c #76B8D8",
"/. c #74A8CD",
"(. c #68B9E1",
"). c #77BBE8",
"_. c #7CB1F4",
"`. c #64AAE1",
"'. c #53C3D5",
"]. c #55C2DB",
"[. c #5BC4DB",
"{. c #5CCBDC",
"}. c #4AC2D2",
"|. c #64C5DC",
" X c #74C4DA",
".X c #67D6DE",
"XX c #5BC3E1",
"oX c #5DCBE2",
"OX c #57C3E0",
"+X c #5DD3E2",
"@X c #64C4E3",
"#X c #6BC3E2",
"$X c #64CBE3",
"%X c #6BCCE5",
"&X c #64CDE9",
"*X c #6CCBEA",
"=X c #6DC2E9",
"-X c #72C5E4",
";X c #75C8E9",
":X c #64D4E5",
">X c #64DCE5",
",X c #6BD3EC",
"<X c #6CDCED",
"1X c #69D8E7",
"2X c #71D4ED",
"3X c #76D9EB",
"4X c #6FDCF4",
"5X c #6DD7F3",
"6X c #72D6F2",
"7X c #73DBF4",
"8X c #79D9F6",
"9X c #75CFF2",
"0X c #6BE3EB",
"qX c #69E6EB",
"wX c #74E7ED",
"eX c #6EE7F1",
"rX c #73E3F3",
"tX c #73EBF4",
"yX c #7AEAF4",
"uX c #7AE4FB",
"iX c #75EBF9",
"pX c #7BECFC",
"aX c #76E2F8",
"sX c #7BF4FC",
"dX c #7CF9FD",
"fX c #77F2F6",
"gX c #8493AB",
"hX c #839CB4",
"jX c #879CB8",
"kX c #838DAF",
"lX c #87A2B9",
"zX c #889CC1",
"xX c #8BA6C1",
"cX c #9EBFD2",
"vX c #A8B3C6",
"bX c #81B8F8",
"nX c #88CEDC",
"mX c #A3C2D3",
"MX c #84C4EA",
"NX c #82D6ED",
"BX c #88C9F2",
"VX c #89DBF4",
"CX c #94D2ED",
"ZX c #85E6FD",
"AX c #83F4FD",
"SX c #84FCFF",
"DX c #89FBFF",
"FX c #A6E6F9",
/* pixels */
"                                                                                                                                ",
"                                                                                                                                ",
"                                                                                                                                ",
"                                                                                                                                ",
"                                                                                                                                ",
"                                                                                                                                ",
"                                                  8 i.CXO.:.0 @.@.p.nX+.6                                                       ",
"                                            =.-.' % nXnXW.0 8 & O.W.FX;.8 O.O.7.+.                                              ",
"                                      9 9 W.' ' 5.R.Z ; 7.; i.@.8 O.; -.T.-.B 8.y.; v                                           ",
"                                    z 8 ' 8.Z } , M U.&.' ; v v - -.O.^.< b &.l ^.< 8 U 0.                                      ",
"                                  T.L.L.Y.U.k m G , ,.MX7.l = ; Z u.CXQ < z V k ^.Y.^.e.0.+.                                    ",
"                                :.$.l l I.I.%.MX6.: 6.*.l ^.O.7.W.z 6.l < ^.T.L.I.6.< B e.U T                                   ",
"                              1 u.z $.: $.Z B B C ' 6.7.-.R.E. X&.O.7.e.*.$.B b C Z l $.B 1.5 Y                                 ",
"                            = 5 Y., [ ^.-.8 l O.C c 7 * [ ;X X X^.c < * B B $., C 9.^.l C z.@ 1 E                               ",
"                          9 U l ;.N h  Xu.7.:.:.E.;.- $.VXR.!.Z. X3Xc c -.E.:.y.[ ^.Y.* 6.*.V =.T                               ",
"                        L =.u.7.5.N.h c E.c u.^.c y.y.P. Xy.!.|.t.;X;.N.-.v nXO.' Y.- [ U.,.Y.e.0.T                             ",
"                        1 =.4 ; 8., 8.P.* X $.:.z 8 P.^.P.N.ZXNX5. XE.7.8 l 7.z X l P.[ l 6., Z =.6                             ",
"                      L X = =.U 8.[ y.&.Y.CXv z % z ^.P. X} N.t.;.R.P.7.= < z U ^.^.6.[ 6.-.[ &.X = 0.                          ",
"                      5 Q =./.e.Z 8.- U.-.< ^.&.z Y.$.< VXR.5.y.NX X- Y.u.4 T.T.< ^.C m N.$.^.7.u.5 L                           ",
"                      L =.V 4 :.$.[ * ' -.X % 6.CXR., % Z R.3X Xt.- - h -XCXz * * L.l * C $.9.z U +.T                           ",
"                      L = a 4 4 ^.7 k -.5.Z k < ' j h N , c { j h N N h Z m m m Z 5.[ k ,.9.< 4 = v 9                           ",
"                      5 a Q *.* 7.k 8.5.{ y.R.4.t.N.M.t.N.} { 4.3.b.} t.N.5.4.N.4.5.4.[ m ,.> 9.*.x 6                           ",
"                      5 ~ a 4 l C 6.N.R.R.Z.|.J.|.t.C.Z.F.!.4.>.M.C.F.M.!.-X!.F.F.~.!.U.[ &.4 z l U L cX                        ",
"                      @ s 1.=.z.$.Y.R.NXZXVX%X|.<X7X,X*X#XVXN.-X8XC.8X#XZX8X*XZX;XZX!.;X8.&.z.9.9.5 = mX                        ",
"                      X > Q Q &.Z 8.-X-X*X$X$X[.1X$X,X$X@X;X3.F.|.|.|.%X,X$X%X$X%X%X~.-X[ &.Q &.a 4 & mX                        ",
"                      a z.%.> y h c 5.}  . .X.o.o.o.o.| ..m.] | ..X.| ..m.....X.] ] ] 5.< b l l h.,.9 mX                        ",
"                      5 a : : k h N M.C.n.S.{.V.}.'.V.'.|.#XC.Z.'.'.V.G.[.G.G.S.V.B.C.F.h k < < : l x cX                        ",
"                      n a V ,.Z m N |.2X&X4XiX+XeXiX+XrXZXrX%X|.yXpX1X<XpXaXrXrX{.{.,X#Xj [ G %.b C U lX                        ",
"                      /.^.MXBX~.4.} 8X8X:XaXpX>X0XtX{.yXAX3X.X|.yXfX>X>XpXyXrXaX1X:X7X2X] ^.;XBXBX^.e.r.                        ",
"                      e.%.G G -X4.] ,X6XoX4XiX+XiXdX>XsXDXyX1X.XtXdXqX0XsXtXrXpXrX:X<X%X] ~.N.>.%.1.T.0.                        ",
"                    =.9.b y , b.3.] 7XaXrXAXsXeXsXsX0XfXAXyX.X.XfXSXqXeXSXfXiXSXrX+XaX2X .~.>.y j V T.#.                        ",
"                    U T.G G M !.m. .7X7X4XAXsXtXsXsXqXsXSXAX1XyXfXSXtXtXSXfXtXSXiX:XpX2X] #Xg.Z { %./.Y                         ",
"                    x x.%.k M ~.b.| ZXaX1XiXeX0XfXdX>XfXAXyX1X.XfXdXeXfXdXfXfXdXiX<XaX7X] #X4.M G h.x.=.                        ",
"                    ~ f.%.G j A.d.| uX7X:XiXiX0XtXdXqXsXDXAXwX0XfXdXqXeXfXeXeXsX0X:XaX8X] -X4.m G >.f.0.                        ",
"                    I x.G ^.G N.3. .7X7X{.rXsX>XtXfX>XfXSXAX<X0XSXSXeXeXdXtXtXsXrX:XuX8XN !.8.[ g.8.1.=.                        ",
"                    U 1.9.6.h.N.d. .6X8X:XpXSX0XfXsX0XfXDXDXwXyXsXSXqXqXdXtX0XpX0X{.2X%XN !.I.8.h.h.f.=.                        ",
"                    I z.6.B %.N.5.{ #X2X$X<XyX:X0XeX>X0XyXAX<XyXfXdX0XtXdXiXeXiXaX$X,X#X{ ~.8.,.%.9.z.0.                        ",
"                    L T.Q MX,.I.d.} ~.*X%X1XrX1XiXpXrXtXyXAX1XwXtXtX0XiXfX0X0X<X1X$X2X~.{ N.9.Q.^.I.1.=.                        ",
"                    Y =.9.CX).N.>.{ b.F.J.Z.[.{.:X1X1X:X:X1XV.[.<X>X:XeX1X:X1XoXS.[.%XM.{ I.Q.FXMXQ.1.!                         ",
"                    L e.*.u.Y.I.I.g.F.#X6X$X<XpX:XeXiXyXuXZX$X7XpX<X<XpX<X:XrX:X,X%X#XM.4.^.z.BX%.z.x.=.                        ",
"                    L e.z v 6.L.2.{ N.#X8X%X<X7X:X<XpX1XaXAX,X,XpXaXyXpX4X7XpX&X5X8X#XM.G Q.9.T.l &.x.!                         ",
"                    x e.=.=.9.I.%.M } 3.b...B.V.V.S.'.S.[.$XC.D.oX{.[.oX].G.[.S.n.n.b.3.b I.z./.Q 1.x.!                         ",
"                    I 1.Q L.6.z.%.b 5.3.| ..B...V.'.V.S.$XJ.D.B.G.'.V.V.S.m.m.B.m.t.m.b.b I.z.f.1.1.1.!                         ",
"                    I 1.4 Q n f.>.F ~.~.n.XX5XS.1X4X].,XuX*X*X@X,XaXoXoX4XXX].7XJ.B.|.(.M h.,.n n Q ( !                         ",
"                    L 1.a : < h.>.F ;X*XD.,XaXS.4XaX].6XZX@X@XJ.5XpXoX&XuX&XXXuX@XD.*X9XM h./ > < n 1.!                         ",
"                    I 1.G : a j.{ F ;X=XD.6XaXG.,X4XH.,X8XJ.K.M.XX4X].].4X].S.7X&XD.*X;Xb h.,.y a Q 1.!                         ",
"                    P ( Q n b f.{ F =X(.B.,X4X].&X,XH.&X6XJ.D.n.XXaXXXOX4XoXH.7X&XK.*X-Xb h.1.a n Q 1.!                         ",
"                    s 1.f Q : k.G F =XK.m.XX[.m.].oXG.XX*XK.M.n.H.4XXX].5X].S.,XJ.n.(.~.j h.<.a n D ~ !                         ",
"                    I ( f i i a.J b (.~.n.*X,XG.&X7XD.@X8XK.M.n.XX4XOX].5XJ.B.*XJ.A.(.(.K a.^ i i n 1.Y                         ",
"                    2 ~ / k.a.k.J b (.~.K.8X2XD.&X6XD.@X8XA.d.b.K.&XH.H.6X&X@X8X=X(.).).K s.k.a.l.^ W 3                         ",
"                  jX. 2 f a.a.k.G b !.F.A.*X6XG.,X6XK.@X9XA.d.d.D.&XB.B.XXB.n.(.D.N.(.Q.i { k.k.` u > 1                         ",
"                  kX# p S a.a.k.b b (.).F.K.D...G.J.m.D.~.b.>.| M.[.n.n.J.M.n.J.M.b.(.A.y G s.a./ d p 3                         ",
"                  q.# + p H J J b k h.g.4.b.M.b.n.M.t.M.F.d.>.>.3.M.t.b.M.b.b.M.N.4.N.2.y G <.J A u # o                         ",
"                  T # p W c._.bXc.<.f.,.>.2.g.5.g.4.>.2.2.%.F F 2.N.4.d.N.d.d.g.d.2.2.{ J Q._._.v.A p $ kX                      ",
"                vXO $ p d D D D D f ) ( l.c.c.a.j.a.<.<./ ^ D D ^ a./ a.j.s.k.k.c.l.a.A S H H H A w + 3 $                       ",
"                  q 2 + + p d f d + w w r t d t d t t u d d w w r d r t t r t r @ u d @ u S d d e e # . R                       ",
"                  q $ 3 s ~ x.x.v.W g W / W D / ^ H / ^ ^ / W ) / ^ ^ W ^ ^ ^ ^ W ^ D D / c.c.v.W s 3 $ R                       ",
"                  q o . 3 I ~ ! ! I s I P I n P n n P P P P I P Q Q P P P P P I I P n x P 1.1.~ I # . . R                       ",
"                  gXR q.w.jXzXxXjXq.q.w.w.w.w.w.hXw.lXhXhXjXgXhXlXlXhXhXjXlXlXhXhXhXhXw.hXxXxXxXzXkXR R vX                      ",
"                                                                                                                                ",
"                                                                                                                                ",
"                                                                                                                                ",
"                                                                                                                                ",
"                                                                                                                                "
};
