/* XPM */
static char *_f9708fd97254b5ca1bdd8d84fad2d7bxQ2XwdzRhMfRYbQy[] = {
/* columns rows colors chars-per-pixel */
"64 64 190 2 ",
"   c None",
".  c #020102",
"X  c #0C0101",
"o  c #000805",
"O  c gray6",
"+  c #140101",
"@  c #1B0001",
"#  c #1F0409",
"$  c #18171C",
"%  c #1B1A1B",
"&  c gray7",
"*  c #220103",
"=  c #2B0105",
"-  c #250509",
";  c #2B0309",
":  c #35040B",
">  c #3A040B",
",  c #370A0F",
"<  c #380A0B",
"1  c #2D0A10",
"2  c #390710",
"3  c #330B12",
"4  c #3E0A12",
"5  c #211715",
"6  c #391318",
"7  c #381414",
"8  c #2D2926",
"9  c #392926",
"0  c #362E2D",
"q  c #2C2D30",
"w  c #2F3332",
"e  c #343635",
"r  c #3C3637",
"t  c #42060E",
"y  c #4F0008",
"u  c #4C0612",
"i  c #440C15",
"p  c #4B0C16",
"a  c #440E19",
"s  c #4C0D19",
"d  c #590713",
"f  c #520A15",
"g  c #540D1A",
"h  c #5B0D1B",
"j  c #431117",
"k  c #42121B",
"l  c #4D111C",
"z  c #4C1A1F",
"x  c #4C1117",
"c  c #531017",
"v  c #53121D",
"b  c #5B131E",
"n  c #630917",
"m  c #620719",
"M  c #640C1C",
"N  c #6C0B1B",
"B  c #740D1E",
"V  c #64131E",
"C  c #6C101E",
"Z  c #5D0E20",
"A  c #4C1A21",
"S  c #571321",
"D  c #5B1423",
"F  c #541C23",
"G  c #5C1A25",
"H  c #541E29",
"J  c #5A1D29",
"K  c #670E20",
"L  c #6B0E21",
"P  c #720E26",
"I  c #631422",
"U  c #6C1323",
"Y  c #641926",
"T  c #6B1926",
"R  c #6D1729",
"E  c #661B29",
"W  c #6B1A2A",
"Q  c #741425",
"!  c #7C1425",
"~  c #761A27",
"^  c #75142A",
"/  c #7C1529",
"(  c #751B2B",
")  c #7C1B2C",
"_  c #7B1B27",
"`  c #41262A",
"'  c #4F232A",
"]  c #4E2426",
"[  c #552227",
"{  c #53252C",
"}  c #5C232D",
"|  c #53292C",
" . c #5F2531",
".. c #532930",
"X. c #5C2C33",
"o. c #423238",
"O. c #4E383B",
"+. c #493739",
"@. c #5C353D",
"#. c #553738",
"$. c #6E212F",
"%. c #672531",
"&. c #6A2633",
"*. c #622F36",
"=. c #7C2533",
"-. c #633039",
";. c #6C343E",
":. c #66383C",
">. c #76323F",
",. c #5C3F43",
"<. c #563E41",
"1. c #643C44",
"2. c #6B3D46",
"3. c #733E46",
"4. c #7B3C47",
"5. c #404B49",
"6. c #554043",
"7. c #46504F",
"8. c #5A5857",
"9. c #58575A",
"0. c #634147",
"q. c #694247",
"w. c #644248",
"e. c #684D4E",
"r. c #6E4549",
"t. c #7A484E",
"y. c #7D4D54",
"u. c #615D5C",
"i. c #785056",
"p. c #795458",
"a. c #795B5D",
"s. c #7C5C61",
"d. c #7C6568",
"f. c #7D7B78",
"g. c #890E23",
"h. c #841426",
"j. c #8A1224",
"k. c #83162A",
"l. c #8B152B",
"z. c #841A2D",
"x. c #8C1A2D",
"c. c #901227",
"v. c #93152B",
"b. c #9C152C",
"n. c #941A2D",
"m. c #9C1B2D",
"M. c #8F1730",
"N. c #851C31",
"B. c #8C1C32",
"V. c #9E1631",
"C. c #931D33",
"Z. c #9C1C32",
"A. c #A11B2E",
"S. c #AA1632",
"D. c #A11D34",
"F. c #A31C32",
"G. c #A91932",
"H. c #A61B37",
"J. c #812333",
"K. c #8B2234",
"L. c #942035",
"P. c #9A2134",
"I. c #9A213A",
"U. c #91263A",
"Y. c #A32334",
"T. c #A2213A",
"R. c #8C4554",
"E. c #82545C",
"W. c #8B5D65",
"Q. c #935F68",
"!. c #886165",
"~. c #826569",
"^. c #876F6D",
"/. c #8F696F",
"(. c #896569",
"). c #98676E",
"_. c #95686E",
"`. c #96646E",
"'. c #8A6C70",
"]. c #996770",
"[. c #936D72",
"{. c #9A7B7C",
"}. c #95767A",
"|. c #82807D",
" X c #9F7C80",
".X c #AA7D84",
"XX c #838282",
"oX c #988385",
"OX c #A18085",
"+X c #ACA6A6",
/* pixels */
"                                                                                                                                ",
"                                                                                                                                ",
"                                                                                                                                ",
"                                                                                                                                ",
"                                                                                                                                ",
"                                                                                                                                ",
"                                                                                                                                ",
"                                                                                                                                ",
"                                                                                                                                ",
"                                                                                                                                ",
"                                                                                                                                ",
"                                                                                                                                ",
"                                                                                                                                ",
"                                                                                                                                ",
"                                                                                                                                ",
"                                                                                                                                ",
"                                                                                                                                ",
"                                                                                                                                ",
"                                        i.i p s v l l l l l s s y.                                                              ",
"                                      W.&.h U Q Q U T W W W T Y &.Q.                                                            ",
"                                    W.g L N.Z.C.C.B.N.=.=.=.=.=.W S E.                                                          ",
"                                  /.%.U l.n.D.T.I.z.Q V I V V I T Y ;._.                                                        ",
"                                [.F h z.I.Z.Z.L.N.I u > > : : > s %.E S `.                                                      ",
"                              '.-.g N.C.Z.H.Z.N.I i = @ @ @ @ @ ; z Y E >._.                                                    ",
"                            OXA b ~ C.Z.D.Z.z.T i @ X . . . . X @ = v $.Y F {.                                                  ",
"                          [.;.D U k.n.Z.F.n.C t * X . . . . . . . @ > f T Y :.^.                                                ",
"                           .D R ! j.b.F.D.l.d = X . . . . . . . . X @ > T =.b |                                                 ",
"                        2.D R ) ! j.b.H.D.k.f ; X . . . . . . . . . + < V J.V H                                                 ",
"                      @.l E ( ) k.h.v.Z.Z.k.f ; X % q $ . X . . & 8 9 4 V K.I F                                                 ",
"                      #.a $.) / ) ! j.v.C.) s * X 8.  9.X . . . e     z M K.V [                                                 ",
"                        X.G T U U U ! l.K.) s @ X |.  XX. . . o 5.    [ M z.b |                                                 ",
"                          [ p u u h Q k.N.( x * X f.  XX. . . . 7.    } L ) Y ]                                                 ",
"                          d.0.w.' p M k.U.( p * X 8.+Xu.X . . . w     A M J.I [                                                 ",
"                                a.j I N.L.) c = + 5 r % . . . . O 0 9 6 Z R h }                                                 ",
"                                  4 K N.x.l.V t = X . . . . . . . . + 2 Z W g H                                                 ",
"                                  a h / l.x.N.Y > @ X . . . . . . X @ : D E v '                                                 ",
"                                  p.&.L / z.K.( g 4 + . . . . . . + ; a G v -./.                                                ",
"                                    E.v U Q ) Q ( v ; + . . X X + - k J F A }.                                                  ",
"                                    (.i v I C Q / T x : * @ @ @ ; a G S *.(.                                                    ",
"                                    ~.3 t f y N ! / R u > > > t p I I h ).                                                      ",
"                                    ~., x h d N ! l.z.^ K M V M L K./ m y.                                                      ",
"                                    !.p b T Q ! j.v.C.C.N.B.B.M.C.Z.M.Q F #.                                                    ",
"                                    4.M ! B.x.x.l.n.Z.Z.Z.T.H.H.H.V.Z.z.b 7                                                     ",
"                                  X.I / C.Z.n.n.m.Z.F.F.F.F.F.S.S.G.H.C.I z                                                     ",
"                                  4 m x.V.F.m.D.D.D.D.m.F.F.G.S.S.F.D.P.! b y.                                                  ",
"                                  i U x.b.G.F.D.A.A.D.D.D.D.F.A.A.A.m.P.C.) g @.                                                ",
"                                  p U x.m.F.A.b.b.A.A.m.m.m.m.b.m.Y.P.n.v.M.h H                                                 ",
"                                {.x Q K.P.Y.b.A.A.A.A.m.m.m.m.m.m.m.m.D.F.C.U H                                                 ",
"                                .Xf ^ I.Z.H.m.A.A.A.A.A.m.D.F.F.m.m.F.b.D.B.b |                                                 ",
"                                ].h ) I.Z.H.m.Z.A.b.A.D.Z.Z.F.A.D.A.G.A.T.K.b |                                                 ",
"                              oX3.I N.Z.Z.F.Z.D.A.A.A.D.Z.Z.Z.Z.D.A.F.F.T.B.I }                                                 ",
"                              ` F U B.Z.Z.D.m.m.A.A.m.Z.C.l.k.x.Z.F.F.b.Z.C.^ W                                                 ",
"                              6 f _ B.Z.Z.Z.m.m.A.b.v.v.k.B N ! n.D.Z.v.C.C.N.) R.                                              ",
"                              F M x.n.m.m.Z.m.m.A.b.c.j.Q n d U l.Z.n.l.n.P.C.B.M ;.                                            ",
"                          {.t.I ! x.m.Z.m.m.n.m.Z.m.j.! R f u I / l.l.x.C.Z.C.x.Q G p.                                          ",
"                          ..v ( B.n.m.Y.m.n.j.j.m.n.h.Q Y i 4 F Q h.k.K.L.n.v.j.! T j e.                                        ",
"                          J M B.C.v.m.Z.n.l.j.j.l.j./ T p ; ; 4 M ! k.l.x.v.c.l.k.U p r.                                        ",
"                          &.P M.x.v.n.n.k.! ! k.x./ U g : @ @ ; f U ! k.j.j.g.j.k.U g 3.                                        ",
"                      }.2.G ^ N.k.k.z.! N n U ) ) U g : @ X + - g R ) / k.h.k.k.) ~ I } E.                                      ",
"                      <.k G W ^ R R R I f f b E I b i - X X X # 4 D W U U Q Q U U T E v k s.                                    ",
"                      O.1 k s p s p s p 4 4 a x s a 3 @ . . X + = 4 l s s g s s s p l i 3 d.                                    ",
"                      d.<.0.w.q.1.:.1.1.1.,.1.1.1.1.6.+.e e r o.+.<.0.1.2.1.1.1.2.1.1.1.,.                                      ",
"                                                                                                                                ",
"                                                                                                                                "
};
