/* XPM */
static char *Tile_09_128x1281708449066[] = {
/* columns rows colors chars-per-pixel */
"64 64 71 1 ",
"  c #9397AD",
". c #969BAF",
"X c #969BB0",
"o c #989DB2",
"O c #9FA3B6",
"+ c #A1A5B7",
"@ c #A4A7BC",
"# c #ACAEBF",
"$ c #ADAFC1",
"% c #ADB1C1",
"& c #B4B6C5",
"* c #B3B9C6",
"= c #B9BAC6",
"- c #B6B5C8",
"; c #B5BBC9",
": c #BABCCA",
"> c #C1BDCD",
", c #BDC2CD",
"< c #BFC7D0",
"1 c #C4C4CE",
"2 c #C8C5CE",
"3 c #CBC8CD",
"4 c #D1CDCF",
"5 c #C4C5D2",
"6 c #CAC7D3",
"7 c #C5CBD3",
"8 c #CBCBD4",
"9 c #CDCEDA",
"0 c #D3CED5",
"q c #D1CEDA",
"w c #CAD0D7",
"e c #CDD3DA",
"r c #D5D1D6",
"t c #DAD4D7",
"y c #D4D4DB",
"u c #DAD6DB",
"i c #D4D9DE",
"p c #DCDADE",
"a c #E1DCDE",
"s c #D6D5E0",
"d c #D9D6E1",
"f c #D6DCE1",
"g c #DDDDE2",
"h c #DEDEE9",
"j c #E3DEE2",
"k c #E8DFE2",
"l c #E1DFE8",
"z c #DDE1E5",
"x c #DDE3E9",
"c c #DFE9EF",
"v c #DFE9F0",
"b c #E3E2E5",
"n c #EAE3E5",
"m c #E5E5EA",
"M c #EBE6EA",
"N c #E6E9ED",
"B c #ECE9ED",
"V c #F0E7EA",
"C c #F2EAED",
"Z c #E5E7F0",
"A c #E5EBF1",
"S c #EDEDF2",
"D c #F3EEF2",
"F c #F9EEF2",
"G c #EDF0F6",
"H c #EFF2F8",
"J c #F4F1F5",
"K c #F9F2F6",
"L c #F5F4F9",
"P c #FAF4F9",
"I c #FFFAFD",
/* pixels */
"cAAGGGGGGHAAAGGSSBNNBNSSSSSBBNJS.+xBJKPPKIBbNNBNNNmbMxGGGASGGNNB",
"xcvvANvAcGzxNSSBBbkjbjNNBNMmmbNNwbbNBSDDJKNpbbbmMzbbMbcANNcNcxzm",
"xcvABANNNAxxNSSBMbbpppSNNNmmbmNNifmzmBSDJKbpbzbbmbbbmzNNNmmmbxbb",
"xAAANNNNNNgxNSDBVbkr4bNNmmbzbbbNweiipmNSGPbpppzbbbbzMzmNbmxbmbaz",
"cAABBNmmbNpmSSDCMnnu3zNmmxpzzzmb*,,wffxcBLbpppzpzbbbNbbbbbbapftp",
"mASSNmbbbMdmSBDDCVnkrfNbzzppzabb<<<<wffcNJbpbpapzbbzNbkbaafrtpjb",
"mSSBNnbjptpMSCDDFCVnnpmzzprppfjf<eweiffcMHbppbjbbbMMBbaptrtpajjb",
"mSSBMnbtrpbBCCDCFFCVCbxbpiipfaabwwwifzzxNJbpbababbbMBba3taakaaan",
"mDDVMkkt3ajDVDDFFFFFVtjappbpppjbeiifgmmmZJmabbnbnnNMLkk34zaabkkn",
"mSDDVVna2akVDVCCCFCVCaptpappjjbb7izcmmmZNJbbnbnnBBCBDkka4paknknn",
"NSDDDVVnpruVVVCCCFCVCatapbaajjlb7epxNBBNNSnnMMnBDDCDDMnVa3pknknC",
"MDVDFFVVMarkkVCCCCVVCkaaaabkkbknppfbMNDSBGMnCCCCDDDShdCVnrtknnnC",
"MDFDFFCVkk0jMVVVVVVVCkajbkkbkkMMpblllBDSCGBVDDFKDDDmhmCCk06knnVD",
"MCCFFFFVkj6kVVMMVVVVCkakbnnnMMBDpbMkMVDDDJCCFKKKDKLSDVCCkt0jknVD",
"VVCCFFCCVVakVCVVCVVnMakkbnVVVCDFylglCFLDDJCFKPKKKKKDDCCVMkrgpjMD",
"kCCCCCCCMVakVnMVVCCVBkknnVCBFDFPajjjlFFFDJDKPKKKLJLDLVVVMnr6uppu",
"kVVVVVVVVVbanknnnnVnVknVVCCDFFPPk6qqnKFKDPDFFPLPDDLFLMVVnVa==O&g",
"kMVVVVVVnVaakknnnnnnnanVCCDFPPPPjq>VFKDKDLVCDBl6qhldmMVnnnnM. 6C",
"MCVMVVVVnVkannnnanaabakVCDFFPKPP>l6DFFKCDJDIIKBgllllDMnnnnkm:rMp",
"nVVCVVVVnVanbanaannnnpknCDKDFFDBqClVFDFJFKl>:6dddsddFVVVnkjb7:*6",
"aknnnVCVnnaaajjjkajubr8rq9yBDDDZlDDFJKJDVDq>gnJKKKKDPBaVbnbad,&e",
"kbabkna0nbbnMmbggMNSbzuiy:qZLPFhlMllzzmMSDlZBSBBCBDBCBbbbabzby7i",
"appppau2ubmSSSNm9eNDSNSSDJZsqmH9eiyseeixZNnpppzblbjbbfzzpbppuwe2",
"zbpppaa0yjbBSNSSm65nNBNNBNSZ99GAizxhzfxdBy6bzpbbmlbmMdgzpzzpyiC9",
"bzpppppbbzbBBNzghhshmmNBNNBNZhxZgmmjmxhmylljgbpmbjmmmg7pzzzpw#ri",
"bbappitbbbmBNM*:sghxMmNBNl-ySh9dnNNNmmbJDyjkjbbbmmmmb666ipiie##6",
"bjzbipbzbjbNMp#iBxdgbNNnN9:LHDxdjBBBmmJJKMbbbbmmbmbbb:9e,7wegxml",
"bzbppmMmbbbNbp,bBmhmNNmmnsDLLLGZNBBNmDDJJLCMMmmabmmbjyzdy:*efbNB",
"bbppNNNbbxbbmbNBNNmNNnmmNJGJJJSZCCBzmDDJJJCCMNbpzmzbbglbie,,exmm",
"NmbBBBMNbNmmbmNNNNNnNNbNDSSJGSDNDKmxNSDDDDJCCbazbbbbbgjiw<w<7fmN",
"bBSSDSSBBBbbbxmxNmmNNbmHGJSSGZmSDNxNBCJDJJCBMbbbbbxbzufieww<wfNB",
"MNybMMMBBBCppzppujbzMmSAZmmmmbdmNbzzmNMMBBCbkbbbpgzgNg,ew<wwwifB",
"biabbNBbDDKbVPSSBJJBnCcizxNNmNNSNjVVBBnkBbMjzzfzzzzcNNir8hiieeff",
"bppzbbbbMVPPKDJKJDCCbMN,<wefmmNBBmakaaaaaabCf<,7wfzxmDMapiyywwyx",
"fNztbzbMBKBJKJDDDCCJBMJb7efhxmNDBDntajakkabBB37wifzxNddmipzpieei",
"pbNapbbNBDCDJDDSDJSDDBNBcwfgmNNSDNJmtkaaaaaVBniwezzmS6l11zpzge1e",
"pbzCbiNnSKKDJKDBBJBSJNzcNzzxmNSCMBNKntaaaaaMnnbyezbNNCC:&mggf5,h",
"zbzbSzpSBFDDDSDDNNSBBNzxNBNgmnmDBBMnDa4atppnMnnkpfzmMnpO5mxzi1ex",
"bzzNbKmaSKKBBBBSGNBSGbfxNBBxgljBCBBBnDa4auuMnnkkpiibgj92iffw<rgl",
"aiaNNNKbbJDmxxNNBSBNSzfzNNBBMmlMnBBnnaVt3prBnnnjjapbMl#1ie<*78gl",
"ipmNBBSPSBDzfzcmBSBBBNzzNNCSSBjmbDBnkkaVatpCCgjjjuugmr:;78=7e78m",
"7ibmmNBppbpwwifzNBNNBpfzbnNCCDMpnnnaaaatattBBMtruukagry178777ww2",
"rpmbmbNipBpifxbbbmmMBpgmmbbmNMDNbNMbbbbbabzBNCMnlmlMmggmbpzzge7h",
"jNNMBMNBBNbNNSBNmbmbMbmNNNmmmmMMASSSBNNNNNNBmZmSBNNSZmZGLLLGZZZA",
"pbbnMMMmmmazzmmbxbjzmppzzbbxmblmNNbbbbbbbbzxNzNSSSNBssLAZZNZSGLL",
"jMMBMBNmbbpzbzmmbbbjMppzbbbbbbmMbMbbbbbktpppzbSBBBS9;SLJDLDHLHLL",
"bBBBBBBBMmfpabzbbbmzNpabbmmmmmmNbMbbaitrtabpgmNBBSNs$qLJLDHDHLLL",
"MCDBDBDBSBppfpaxxbbbBzabbbMMMmMMMMbattippbaxxmmNNNMM57IJDHDHDDHL",
"BJCDmgllgdrpggbjjmbmNjkbnMMBNMMNnnbk3raaakbBBbNNMNMbMBHDHSSSJSHJ",
"CJDMs9q9qhgpjjjbmmmnBbnnNBCBBBBDMMnn00aaknbNBNbbmNmMNmHSSHHSHSSH",
"BKJNMZZlZDlaakbbnmMMDnnBBCBDBDDDVCVnntraknbNNbbbmmmmMNHHJHHSHSSJ",
"DJKSBDBSBHmabbbbnBBBSMBDDDDmgghlCFCVnn3tknzNNbbzbmmmNNGGHHGHHGSG",
"JKJJDSSDBLmknbnMBCBBFZJJJDNsqqsdCFFCVkrrkVbzzbpzbbmmNzcGGGGGGGGG",
"DPKDDDSDBLnbVMBCDDDBDCFJJJNmMZlZCFFCCk44kVbzappzgzbbNzcGAAAAGAGH",
"bmMmmSDDGJVVCCDDDDDd9lPKJJDSBZDGVFCCVnptanapiippppbaMxcAAvAGGAGG",
"illllSSSBGBCDDKJDJlhllKKKJDDDDDDVCCFVBn4iapiifpppzpzmzcAAAAAAcNG",
"dlddDSDSBJBCPKKKJJBBDSKKLDHDDSDGnCCCVnVa=4rpbpppzazjMzcAvANANcNN",
"jlBZDCBDBDCPPKKKKKDSFZllMZMmSSDJkVVVVnkaio+bpabaajkjMxNAAANNNNNN",
"DPKKDLDBCCBPKKKJLJDSJZ>sllgmSDGCkVVVnnnkB#=kaaaajjkbMmNAANMNNbmM",
"DFDDDDDBBJCKKKKKJJDDPllllddDDSDDVCVVnnnkb<4abbbkbbbnBNSSBNbbbbbb",
"CDDDDDBVBDlCBm6qdlldLllllMZCDBJSaVCCnnnkpr3bkbnnnnnBJMBBMMbkjpaa",
"BLDDDDBBVVFPPBhlZllVLFPPPPKKJBCDaVnnnnnbbbpbnnMMBVVDPBBSMbjpirrp",
"MDDDDBnnkV0-6ssysssVDMDDDDDFDCCVaknaaaabpbtknBBVCCJDKMBBMbjr3pak",
"lBBVVNbkknrqlCDDDJDSDMVDSVSVBMMVaaaaaapppbpknnBVVCDCJBVBbkkt1tpj"
};
