/* XPM */
static char *_33b6a5757eb42dbe01a23b65c052409HKrcmDiK75tQJCMO[] = {
/* columns rows colors chars-per-pixel */
"64 64 138 2 ",
"   c None",
".  c #0B0000",
"X  c #130000",
"o  c #200500",
"O  c #7E6D28",
"+  c #7B6E33",
"@  c #8E6E07",
"#  c #8D6C0B",
"$  c #916D0D",
"%  c #8A7407",
"&  c #8C7807",
"*  c #8B7508",
"=  c #8C7808",
"-  c #94740B",
";  c #98750F",
":  c #9A790E",
">  c #8F6E11",
",  c #8E6F1D",
"<  c #936C14",
"1  c #926F1D",
"2  c #8E7212",
"3  c #8B741B",
"4  c #8D7A19",
"5  c #947215",
"6  c #997414",
"7  c #927916",
"8  c #95731A",
"9  c #9A741C",
"0  c #95781E",
"q  c #98791F",
"w  c #A77F1D",
"e  c #896F23",
"r  c #837624",
"t  c #8E7325",
"y  c #897925",
"u  c #84722D",
"i  c #8C722D",
"p  c #8B7A2C",
"a  c #957523",
"s  c #997621",
"d  c #947923",
"f  c #997827",
"g  c #94752B",
"h  c #95792B",
"j  c #997C2C",
"k  c #877233",
"l  c #8A7333",
"z  c #897830",
"x  c #827739",
"c  c #AD7F2A",
"v  c #827642",
"b  c #897747",
"n  c #918018",
"m  c #A8801E",
"M  c #AB8424",
"N  c #AB8429",
"B  c #AF8829",
"V  c #B18A2B",
"C  c #BB993E",
"Z  c #C1943F",
"A  c #C7A53D",
"S  c #C9A33D",
"D  c #C19441",
"F  c #C6A547",
"G  c #CBA642",
"H  c #CCAA46",
"J  c #C3A04E",
"K  c #CCA74F",
"L  c #CDAB4B",
"P  c #D1AB46",
"I  c #D4AC4C",
"U  c #D7B14C",
"Y  c #CCA951",
"T  c #C6A85F",
"R  c #CCAA5F",
"E  c #D2AC54",
"W  c #D5B353",
"Q  c #D4B45B",
"!  c #DAB359",
"~  c #D7B85B",
"^  c #D8BA5A",
"/  c #CEAC61",
"(  c #D1AE63",
")  c #CDB064",
"_  c #D5B266",
"`  c #DAB764",
"'  c #DDBC61",
"]  c #D5B26B",
"[  c #DEBF6B",
"{  c #D6B773",
"}  c #D8B774",
"|  c #D9B873",
" . c #D1BC7D",
".. c #E1BF66",
"X. c #E2BE72",
"o. c #DFC169",
"O. c #DFC274",
"+. c #E0C367",
"@. c #E3C369",
"#. c #E3C274",
"$. c #E7C579",
"%. c #E9C67C",
"&. c #D4C287",
"*. c #D5C58B",
"=. c #D7CA96",
"-. c #DBCA94",
";. c #DCCC9A",
":. c #E7CD84",
">. c #EDCA83",
",. c #EFCE89",
"<. c #F0CC80",
"1. c #EDD28A",
"2. c #F1D08C",
"3. c #E5D196",
"4. c #ECD194",
"5. c #EDD398",
"6. c #F0D593",
"7. c #F3DB9F",
"8. c #F5DD9F",
"9. c #E4D7A3",
"0. c #E3D5A4",
"q. c #EAD9A1",
"w. c #EEDDA5",
"e. c #EADCAB",
"r. c #EFDEA8",
"t. c #FCE4A6",
"y. c #F2E1AD",
"u. c #F7E5B3",
"i. c #F8E8B7",
"p. c #F4E7BA",
"a. c #F8E7B9",
"s. c #F6E8BB",
"d. c #F7E8BD",
"f. c #F9EABF",
"g. c #FBECC1",
"h. c #FFF8CC",
"j. c #FFF9CD",
"k. c #FFFFD4",
/* pixels */
"                                                                                                                                ",
"                                                                                                                                ",
"                                                                                                                                ",
"                                                                                                                                ",
"                                                                                                                                ",
"                                                                                                                                ",
"                                                                                                                                ",
"                                                                                                                                ",
"                                                            x u k l y r r v .                                                   ",
"                                                          + y 4 3 0 % = 4 u X                                                   ",
"                                                            3 7 1 9 @ - 7 i X                                                   ",
"                                                          i 0 5 8 9 6 6 > i X                                                   ",
"                                                          t 5 5 9 < 6 5 9 a o X .                                               ",
"                                                        e 8 9 9 < 8 9 < 8 a i b .                                               ",
"                                                      p d 5 < < < 5 8 8 a , d O                                                 ",
"                                                      3 2 5 c D C Y ) T h 8 2 p                                                 ",
"                                                      5 7 5 N E Q :.w.&.a 8 5 t                                                 ",
"                                                      5 7 5 M E R 4.p.=.d 5 5 i                                                 ",
"                                                      5 7 7 M E / 8.h.9.h 5 5 i                                                 ",
"                                                      5 5 5 M E ( t.k.e.j 5 5 i                                                 ",
"                                                      5 5 5 M Y R 7.h.0.j 5 5 i                                                 ",
"                                                      5 5 2 M K R 5.g.;.h 5 5 i                                                 ",
"                                                      5 7 5 M Y / 5.f.;.j 8 5 i .                                               ",
"                                                      5 7 5 M Y / 4.d.;.j < 5 i .                                               ",
"                                                      5 5 2 M E ( 4.s.;.h 5 5 g .                                               ",
"                                                      5 7 5 M E ( 4.a.;.h 5 < i .                                               ",
"                                                      5 7 5 M ! _ 6.i.;.j 6 5 i .                                               ",
"                                                      5 5 2 M ! ` 6.u.-.f 6 5 i .                                               ",
"                                                      5 5 2 B ! ` 1.y.*.a 6 5 i .                                               ",
"                                                      5 5 5 V ! ` 1.r.*.s 6 5 i .                                               ",
"                                                      5 7 5 M W Q :.q.&.s 6 5 i .                                               ",
"                                                      5 7 < M L Y O.3. .s 5 5 i .                                               ",
"                                                      5 8 5 M H L #.4.{ a 5 8 i .                                               ",
"                                                      5 8 5 m G H [ 2.} a 8 8 i .                                               ",
"                                                      5 8 5 w S F [ 2.| d 8 8 i .                                               ",
"                                                      5 8 5 M G L o.,.{ d 7 8 i .                                               ",
"                                                      5 8 5 M U W +.>.] 0 7 8 i .                                               ",
"                                                      5 5 5 M U W +.>.] 0 7 5 i .                                               ",
"                                                      5 8 5 M P L ' %._ 0 7 5 i .                                               ",
"                                                      5 8 5 w S A ~ $._ 0 5 5 i                                                 ",
"                                                      5 8 5 m S S ^ $.( q 5 5 i                                                 ",
"                                                      5 8 5 m S A ~ #.R 0 5 5 i                                                 ",
"                                                      5 8 5 m S A ~ X.R 0 5 5 i                                                 ",
"                                                      5 8 5 m S G ~ #.( q 5 5 i                                                 ",
"                                                      5 8 5 M G H ' $.( q 5 5 i                                                 ",
"                                                      5 8 5 M P H ' %.( q 7 5 i                                                 ",
"                                                      5 8 5 M P L ..>.] s 7 5 i                                                 ",
"                                                      5 8 5 M I W @.<._ s 5 5 i                                                 ",
"                                                      3 2 5 c Z C F Y J s 5 3 z                                                 ",
"                                                      p d 5 < < 8 5 5 5 9 , d                                                   ",
"                                                          8 9 9 < 8 6 $ 8 a                                                     ",
"                                                          t 5 5 9 < - ; 5                                                       ",
"                                                            0 5 8 9 ; : #                                                       ",
"                                                            3 7 8 s @ - 7                                                       ",
"                                                            y 4 t 0 * & n                                                       ",
"                                                            x u l u y                                                           ",
"                                                                                                                                ",
"                                                                                                                                ",
"                                                                                                                                ",
"                                                                                                                                ",
"                                                                                                                                ",
"                                                                                                                                ",
"                                                                                                                                ",
"                                                                                                                                "
};
