/* XPM */
static char *_e15355167604969c2244d5e5cd880886Tj0BucqJPMCBRrE[] = {
/* columns rows colors chars-per-pixel */
"64 64 241 2 ",
"   c None",
".  c #020200",
"X  c #0C0201",
"o  c #090A00",
"O  c #130200",
"+  c #1C0201",
"@  c #150806",
"#  c #240200",
"$  c #2B0301",
"%  c #250901",
"&  c #2D0B01",
"*  c #290D08",
"=  c #320301",
"-  c #3B0201",
";  c #340A03",
":  c #3E0B01",
">  c #310C0A",
",  c #241307",
"<  c #331302",
"1  c #3C1200",
"2  c #351D0D",
"3  c #3A1908",
"4  c #390F10",
"5  c #291917",
"6  c #3C1F1D",
"7  c #1B2214",
"8  c #39240E",
"9  c #34251E",
"0  c #393225",
"q  c #332921",
"w  c #430302",
"e  c #4C0403",
"r  c #430A01",
"t  c #45090B",
"y  c #4B0A0A",
"u  c #490807",
"i  c #520505",
"p  c #53060A",
"a  c #560C0B",
"s  c #451301",
"d  c #4C1305",
"f  c #4A150D",
"g  c #511F02",
"h  c #571A05",
"j  c #540C11",
"k  c #451517",
"l  c #561012",
"z  c #492507",
"x  c #522204",
"c  c #572508",
"v  c #5F350F",
"b  c #482A18",
"n  c #582412",
"m  c #543719",
"M  c #4D371A",
"N  c #622813",
"B  c #6C3D1A",
"V  c #673919",
"C  c #64390E",
"Z  c #4A2A22",
"A  c #4D3325",
"S  c #4A3B2B",
"D  c #563324",
"F  c #543A2B",
"G  c #5C3824",
"H  c #4A3F36",
"J  c #543D33",
"K  c #593C31",
"L  c #523737",
"P  c #512F26",
"I  c #633C2C",
"U  c #6A3A26",
"Y  c #633A34",
"T  c #5C4435",
"R  c #56453B",
"E  c #5B453B",
"W  c #544437",
"Q  c #5F4127",
"!  c #6A4529",
"~  c #634532",
"^  c #62493D",
"/  c #6C4A3B",
"(  c #744937",
")  c #79543C",
"_  c #76553A",
"`  c #725036",
"'  c #4C3F46",
"]  c #574844",
"[  c #5A5950",
"{  c #5B4E58",
"}  c #685248",
"|  c #755A4B",
" . c #7D5845",
".. c #675B52",
"X. c #745D54",
"o. c #766456",
"O. c #76624E",
"+. c #7F7361",
"@. c #824B38",
"#. c #87593C",
"$. c #845A2A",
"%. c #8F633B",
"&. c #9A6B3D",
"*. c #A5653F",
"=. c #875B46",
"-. c #925C4F",
";. c #A25B49",
":. c #866649",
">. c #956443",
",. c #9B644E",
"<. c #9D6E4B",
"1. c #966749",
"2. c #8D6856",
"3. c #976756",
"4. c #8B735E",
"5. c #9D7356",
"6. c #A36B4E",
"7. c #A4754A",
"8. c #A66855",
"9. c #A97859",
"0. c #B37C5E",
"q. c #B06552",
"w. c #826764",
"e. c #97766A",
"r. c #8A776E",
"t. c #A47A62",
"y. c #A8776C",
"u. c #AD805A",
"i. c #B58F5E",
"p. c #908067",
"a. c #8D8679",
"s. c #98877C",
"d. c #AD8160",
"f. c #A4826C",
"g. c #AC8B68",
"h. c #B58668",
"j. c #AF9A6F",
"k. c #A68375",
"l. c #B58A75",
"z. c #BA9A79",
"x. c #B2916C",
"c. c #C8966A",
"v. c #C39675",
"b. c #CA9B75",
"n. c #CB9B7D",
"m. c #C29A7A",
"M. c #D79E76",
"N. c #C18B71",
"B. c #CBA279",
"V. c #DCA37B",
"C. c #D1A97D",
"Z. c #DCA679",
"A. c #E1A879",
"S. c #AC8E82",
"D. c #AAA796",
"F. c #BBA082",
"G. c #BAB8B7",
"H. c #A6B0A8",
"J. c #CA9B85",
"K. c #D59E89",
"L. c #E19F85",
"P. c #CCA68D",
"I. c #C6A588",
"U. c #D4A483",
"Y. c #DCAC85",
"T. c #D8A989",
"R. c #DDB38C",
"E. c #DFB98D",
"W. c #D8B686",
"Q. c #DFAD92",
"!. c #D5BB95",
"~. c #CDA792",
"^. c #E3AC82",
"/. c #E9AE84",
"(. c #E5AD8B",
"). c #E5B584",
"_. c #EEB485",
"`. c #ECBC86",
"'. c #E3B68A",
"]. c #EAB68B",
"[. c #E3BA8A",
"{. c #ECBC8B",
"}. c #E5BE87",
"|. c #F2BC8E",
" X c #F4B888",
".X c #F3AF94",
"XX c #E4BB92",
"oX c #ECBC92",
"OX c #E7BF9C",
"+X c #F3BD93",
"@X c #F7BB96",
"#X c #C8BAB4",
"$X c #E7BFA4",
"%X c #F8BEA8",
"&X c #ECC28B",
"*X c #F5C38F",
"=X c #EEC394",
"-X c #EDC39A",
";X c #E6C195",
":X c #F2C394",
">X c #FFC295",
",X c #F3C39C",
"<X c #FCC59D",
"1X c #F4CB9C",
"2X c #FACA9B",
"3X c #F9CC93",
"4X c #FFD69F",
"5X c #CBC5B8",
"6X c #EBC9A1",
"7X c #FDC3A4",
"8X c #F5CAA4",
"9X c #FCCDA2",
"0X c #FECCAB",
"qX c #F1C5A9",
"wX c #EED3AB",
"eX c #FDD3A3",
"rX c #FFDBA4",
"tX c #FCD4AB",
"yX c #F7D3AA",
"uX c #FCD4B2",
"iX c #FDDDBC",
"pX c #F9D9BA",
"aX c #EEDCB8",
"sX c #FFE5AE",
"dX c #FEE4BC",
"fX c #FFE9B8",
"gX c #CACBC8",
"hX c #D9D2CA",
"jX c #EFDECD",
"kX c #FEE6C2",
"lX c #FCE9C7",
"zX c #FFF2CF",
"xX c #FFF6D8",
"cX c #E6E0E1",
"vX c #FBEDE9",
"bX c #FFF4EF",
"nX c #FCF5E8",
"mX c #FEFCF5",
"MX c #FCFDFC",
"NX c #F7F2F2",
"BX c #EFF5EB",
/* pixels */
"                                                                                                                                ",
"                                                                                                                                ",
"                                                                                                                                ",
"                                                                                                                                ",
"                                                                                                                                ",
"                                                                                                                                ",
"                                                                                                                                ",
"                                                                                                                                ",
"                                                            x.                                                                  ",
"                                              3     T.oX2X2X:X9X,X7XT.h.    b                                                   ",
"                                          ~     oX+X{.^.Z. X>X/.tXkXeX,XXX-XB.9.                                                ",
"                                        ~   U.<X+X_.M._.>X X X>XoX[.eXsXfXrX}.).oXV )                                           ",
"                                      } ) uX<X|./.V.M.V.^.<X@X|.=X=X&X}.sXrX`.`.|.U.=.&                                         ",
"                                      T _ zX9Xc.B 9.8XU.h.c.c.+X=X[.=X=X2X4X*X|.].(.9.# X.                                      ",
"                                      / ! XXB.C.z m :.g.OXU.Y.oXoX=XoXC.$.&.oXoX,XQ.t.& }                                       ",
"                                      / V -XXXdXm 8 O p.zXz v oX].9X%.C R.h.c n.$XqXF.+                                         ",
"                                    K l.R.=X1XkXS R [ D.xX!.W.tX:X].).R.lXOX$ I.pX_ O.                                          ",
"                                  E + f.OX{.9XdX4.a.D.5XzXdXfX1X).Z.1XyXB.m.z l.  F                                             ",
"                                    o.~ 1.:XZ.E.aXzXxXaXuX8XE.7.7.&.u.g._ =.2.2.|                                               ",
"                                      +._ v.N.XXkXkXkX!.u.7.<.B V B z z f.4.T                                                   ",
"                                          + n 1.)  .:.#.>.9.9.<.,.5.G K                                                         ",
"                                          w.y.e.k.~ + U 0.0.9.- = $ $ 8                                                         ",
"                                              ] w.P = = r d h 0.n.T.z.4.O 9                                                     ",
"                                          { ' @ # ; f r d d N %XuXyXiXI.2 ]                                                     ",
"                                          X O k t l u r r : d K.'.E.6XF.% R                                                     ",
"                                          5 6 > w w e - r s d J.oXsX6XI.< J                                                     ",
"                                              X % ; - - t f n n.8XfXtXI.% W                                                     ",
"                                                , # 4 k w w s b.=XeX8XP.< W                                                     ",
"                                              #X5 + > $ $ U B Y.`.}.9Xv.< E                                                     ",
"                                      s.s.a...X * & # D f.uXeXeX:X[.,Xm.1 K                                                     ",
"                                * I ( 1 3 e.| | :.( c 5.6XyXeX`.].,Xl.@.# L bX                                                  ",
"                                > -.y.n =.lXkXlXyX-XoX-XyX;X{.:X>.n h - - 4 L cX                                                ",
"                                4 2.l.n ` iX!.j.yXyX8XtX8XR.U.` d = e a p y # ] [                                               ",
"                                  / 3 ` ) m :.wXwXuXkXqXn.s z = - j e i a p k + . H.                                            ",
"                                  ..A 2. .$ I ~.$XI.J.3.f s : - u p i i i l > + . G.                                            ",
"                                      w.Z Y P Z 2 2 < $ # t t w e e a w y - * 5 X G.                                            ",
"                                          vXvXnX7 o X + k t j p e u - = $ # O G.MXNX                                            ",
"                                            MXMX7 . X % = w w e e w r ; & + X gXMX                                              ",
"                                              BX0 , + b -.;.;.q.q.8.9.t.f.4.X gX                                                ",
"                                              mXS b D @.6.(./.7X0X7XiX0Xt.k.r.cX                                                ",
"                                              mXZ I ,.N h M.c.).A.V.].b.# b mXNX                                                ",
"                                              mXb / N.@.h <X1X=XA.c.).c.1 ~ nXmX                                                ",
"                                              mXX.X.k.@.g 1.%.'.).&X3X1XR.I.0 gX                                                ",
"                                                mXk.# I =.: x b.*X`.4XeX8XP.O hX                                                ",
"                                                mXs.# ( 8.n U #.c._.`.{.7XP.% 5X                                                ",
"                                                bXS.$ =.J.,.,.- *.A./.^.>.5.o.cX                                                ",
"                                                mXa.%  .h.N V 1.M.|.<Xb.= D                                                     ",
"                                              mXnXs.+ =.l.s g (.V.b.oXB.; Q                                                     ",
"                                          mXhXS T / ` U x s g R.=XeXW.i.C.z.M                                                   ",
"                                      bX#X^ |  .I V V #.v.b.N.,Xc.7.B.].,XR.&                                                   ",
"                            q 0 A b b z b 1 z ! x 0.+X,X9X<X2X<X@X.X.X7XL.                                                      ",
"                            @ q o.~ ~ < m 2.:.t.9.d.h.d.u.>.<.6.,.8.8.8.  8.                                                    ",
"                            H ] R J R W R J J ^ ^ K F A A F                                                                     ",
"                                                                                                                                ",
"                                                                                                                                ",
"                                                                                                                                ",
"                                                                                                                                ",
"                                                                                                                                ",
"                                                                                                                                ",
"                                                                                                                                ",
"                                                                                                                                ",
"                                                                                                                                ",
"                                                                                                                                ",
"                                                                                                                                "
};
