/* XPM */
static char *_675bf1e4966451afdaa6c9c80a4b8ed6rf60Xm988spsiP4[] = {
/* columns rows colors chars-per-pixel */
"64 64 194 2 ",
"   c None",
".  c #8F6D0B",
"X  c #8B6905",
"o  c #946E0A",
"O  c #96700E",
"+  c #9A740D",
"@  c #8F6E12",
"#  c #866D1A",
"$  c #8C6C1C",
"%  c #946E13",
"&  c #8E731C",
"*  c #947213",
"=  c #9B7413",
"-  c #977A16",
";  c #9C7914",
":  c #92731B",
">  c #9B7619",
",  c #9E7A1A",
"<  c #A17614",
"1  c #A17A13",
"2  c #A37D1C",
"3  c #856E25",
"4  c #866D2A",
"5  c #8D7423",
"6  c #8D742B",
"7  c #897A2B",
"8  c #917622",
"9  c #9E7C24",
"0  c #92742E",
"q  c #977828",
"w  c #9B7E2C",
"e  c #856D31",
"r  c #857037",
"t  c #8B7434",
"y  c #8E7A32",
"u  c #8C753C",
"i  c #8B7A3F",
"p  c #917430",
"a  c #9D7D31",
"s  c #93793E",
"d  c #A07E24",
"f  c #837245",
"g  c #8B7742",
"h  c #84764A",
"j  c #8E7A48",
"k  c #8C7941",
"l  c #907A41",
"z  c #907C49",
"x  c #A5811B",
"c  c #AE881D",
"v  c #B18D1F",
"b  c #9B8029",
"n  c #9F8139",
"m  c #A58221",
"M  c #AA8424",
"N  c #AE8A23",
"B  c #A58329",
"V  c #AD8D2C",
"C  c #B28B23",
"Z  c #B38D2B",
"A  c #B09127",
"S  c #BA9423",
"D  c #B4922E",
"F  c #B9942C",
"G  c #BF9A2A",
"H  c #AC8E32",
"J  c #A4853B",
"K  c #AF8E3D",
"L  c #A6873A",
"P  c #B18D34",
"I  c #AA9033",
"U  c #B59333",
"Y  c #BB9534",
"T  c #BC9936",
"R  c #B59439",
"E  c #B99639",
"W  c #B7983B",
"Q  c #B79C35",
"!  c #BFA13F",
"~  c #C49B26",
"^  c #C2972E",
"/  c #C29B2D",
"(  c #C39B33",
")  c #C99E33",
"_  c #C39C3C",
"`  c #CB9E3B",
"'  c #D19F3C",
"]  c #C5A22D",
"[  c #CBA42C",
"{  c #C5A92B",
"}  c #CCA82D",
"|  c #C8A525",
" . c #D1A52F",
".. c #C6A334",
"X. c #CDA333",
"o. c #CDA834",
"O. c #C6A33B",
"+. c #CCA43A",
"@. c #CDA93D",
"#. c #D0A234",
"$. c #D2A933",
"%. c #D1A33A",
"&. c #D2AA3D",
"*. c #A58B42",
"=. c #A98841",
"-. c #A58B4B",
";. c #A48547",
":. c #B59944",
">. c #BE9845",
",. c #B4934A",
"<. c #B8984B",
"1. c #B69543",
"2. c #AB8D59",
"3. c #AA9857",
"4. c #AA975C",
"5. c #AD9B5D",
"6. c #A99458",
"7. c #B09652",
"8. c #B69C55",
"9. c #B1985D",
"0. c #B79856",
"q. c #B7A043",
"w. c #BDA144",
"e. c #B7A054",
"r. c #A59665",
"t. c #A89761",
"y. c #AC9B62",
"u. c #A4956A",
"i. c #A99B6B",
"p. c #B29E63",
"a. c #A99B74",
"s. c #AD9F79",
"d. c #BEA463",
"f. c #B8A56D",
"g. c #B6A373",
"h. c #C19F41",
"j. c #C4A443",
"k. c #CCA642",
"l. c #CDA944",
"z. c #CBA54C",
"x. c #CEAA4A",
"c. c #C3A44A",
"v. c #D1A743",
"b. c #D2AC44",
"n. c #D4AE4B",
"m. c #D8AE48",
"M. c #D1B144",
"N. c #D5B14B",
"B. c #D9B44D",
"V. c #DBB94E",
"C. c #C1A657",
"Z. c #CDAD54",
"A. c #C4AA56",
"S. c #D3AE52",
"D. c #D9AE52",
"F. c #CCB35F",
"G. c #D5B353",
"H. c #DAB354",
"J. c #DBB951",
"K. c #D3B25C",
"L. c #DCB55C",
"P. c #DCBA5A",
"I. c #E1BD5D",
"U. c #C0A868",
"Y. c #CAB066",
"T. c #D3B664",
"R. c #D6BB66",
"E. c #DEBA62",
"W. c #D3B46D",
"Q. c #D5BF6B",
"!. c #DDBD6A",
"~. c #C7B67E",
"^. c #D1B571",
"/. c #DFBD72",
"(. c #D0B67A",
"). c #E3BE64",
"_. c #E8BF65",
"`. c #E1BD71",
"'. c #DCC26C",
"]. c #D9C064",
"[. c #DCC577",
"{. c #E2C064",
"}. c #ECC76F",
"|. c #E4CB7C",
" X c #E4C477",
".X c #BEAD8C",
"XX c #C7B883",
"oX c #C8B882",
"OX c #D1B981",
"+X c #E6C787",
"@X c #EACC85",
"#X c #ECCC8C",
"$X c #E2C38A",
"%X c #EFD88A",
/* pixels */
"                                                                                                                                ",
"                                                                                                                                ",
"                                                                                                                                ",
"                                                                                                                                ",
"                                                                                                                                ",
"                                                                                                                                ",
"                                                                                                                                ",
"                                                                                                                                ",
"                                                                                                                                ",
"                                                                                                                                ",
"                                                    a.r.t.4.p.5.5.5.5.6.i.a.                                                    ",
"                                                    r 6 5 & : & & & 5 6 t r                                                     ",
"                                                  W.w d , ; 1 x x m , B w n (.                                                  ",
"                                          f u 6 q P _ k.+.o.o...( b.v.H.S.z.K 0 t g h                                           ",
"                                        ~.y 8 * o c +.X.) +.+.+...b.@.m.b.n.Z . : 5 y XX                                        ",
"                                      f.8.I A S S S $...+.%.X.+.+.&.%.&.o.&...( _ R :.d.g.                                      ",
"                                    l 5 V O.&.X.X.X.$.X.+.+.o.o.%...[ [ [ ..b.H.H.H.L.:.3 i                                     ",
"                                    J - C X.o...$.] ~ / ( ( ( / ( ( ] ] / / l.H.D.D.G.Y w *.                                    ",
"                                u J Q ..} $.X.%.+.v 1 = , > = < = = ; + O ; Z k.v.k.n.x.Z.A.*.u                                 ",
"                              f.8 , ] } ] ~ ) +.%.Z = O = * % * * O * * * * V k.+.v.k.x.G.Z.b 6 g.                              ",
"                            oXe.V C [ } } X.%.Z C C N N N C C C Z Z P U U D Z C Z B.B.n.n.x.U 1.d.                              ",
"                          f 6 H O.X.} ] [ +.` = o N O.@.+.+.o.+.+.n.N.n.G.x.Z . = n.m.l.+.l.G.L.,.u f                           ",
"                          u & D +.X...+.+.` ^ 1 + v ..o.[ [ [ [ +.b.m.b.M.l.U - M l.v.m.+.` S.L.>.0 u                           ",
"                          0 * S o.X.&.+.C = 2 ( ( ..X.[ [ } } [ X.+.X.o.o.O.k.x.h.M ; F v.n.H.H._ : t                           ",
"                          8 o S [ $.o.+.C O + ( X.o.X.X.X.X.#.#.X.#.[ [ X.+.n.J.x.- o D n.n.L.H._ % 6                           ",
"                        ^.P C ~ } [ C C C C v ..o.X.X.#.#.#.%.#.#.#.#.#.X.+.@.b.l.U D U U U x.n.+.U ,.OX                        ",
"                    s.u a _ X.[ o./ 1 = C ..] X.X.X.#.#.#.#.%.%.#.#.#.%.%.+.o.X.O.x.G.R > , O.@.J.I.W.-.g s.                    ",
"                    r.4 9 k.+.o.o.G ; O N +.o.[ X.#.#.#.#.#.+.+.[ [ +.%.' %.X.X.X.B.P.R @ * O.@.N.{.`.;.e u.                    ",
"                    y.6 B +.) %.+.( , = N O.[ } X.#.#.#.#.X.X.X.[ X.+.` %.%.X.X.X.N.G.R * - O.M.G.'./.=.0 p.                    ",
"                    5.# 2 ) ) %.%.( > = C X.[ } X.#.#.#.X.} [ [ [ X.+.+.#.#.#.X.o.M.G.W : - O.M.].|./.J $ 9.                    ",
"                    y.8 x %.+.+.%.^ = O C X.} } #.%.%.+.} [ { { { } X.X.[ [ #.X.+.N.G.R : > j.G.F.[. XL : 0.                    ",
"                    3.& ; o.+.+.#./ < O C o.} [ #.' %.+.X.[ { { { { } [ [ [ #.+.+.B.H.U * 9 z.K.Q.|.|.J : 7.                    ",
"                    3.& ; o.+.+.#./ < * C o.} [ #.%.%.+.X.[ { { { { { | [  .#.+.+.n.G.Y * > z.L.Q.|.|.J & 6.                    ",
"                    y.8 x %.+.+.%.^ = * C X.} } #.%.%.+.X.[ { { { { } [ ] } +.+.+.N.J.U * > z.K.R.|. XJ 8 p.                    ",
"                    5.# 2 ) ) %.%.( > = C O.[ } X.#.#.#.X.} [ [ ] X.X.X.X.X.+.+.+.N.G.U * , l.G.'.%X@X=.# 4.                    ",
"                    y.6 B +.) %.+.( > = N O.[ } X.#.#.#.#.X.X.X.X.X.+.+.%.+.+.o.+.N.H.R * - k.G.T.@X+X-.6 p.                    ",
"                    r.4 9 k.+.o.o.G ; O N @.o.[ X.#.#.#.#.#.+.+.X.X.+.%.%.+.+.+.@.J.I.W @ * O.G.R.#X#X;.4 t.                    ",
"                    s.u a _ X.[ o./ 1 = C ..] X.X.X.#.#.#.#.%.%.#.X.+.#.%.+.+.+.k.G.P.E * , k.x.!.@X$X2.u i.                    ",
"                          P C ~ } [ C C C C v ..+.X.X.#.#.#.%.#.#. . .X.X.+.v.n.x.T U R U Y S.G.Z.<.9.                          ",
"                            o S [ $.o.+.C O + ( X.+.X.X.X.X.#.#.[ }  .X.X.+.N.I.G.- X D N.n.L.E.h.& u                           ",
"                              S o.X.&.+.C = 2 ( ( ..X.[ [ } } [ [ o.X.X.X.@.n.G.x.M + F b.G.L.E.! & u                           ",
"                                +.X.X.+.+.` Y 1 + v ..o.[ [ ] [ o.X.X.@.V.B.T m M _ @.N.v.l.L.{.j.5                             ",
"                                  X.} ] [ +.` = o N O.@.+.O.o.+.O.O.O.x.P.P.T + x @.+.l.k.n.P.{.q.7                             ",
"                                    [ } } X.%.Z C C N N N N C C N Z Z H R E Y F S &.+.n.G.G.w.w.                                ",
"                                      } | ~ ) +.%.Z = O = * % O O = - % % > Z b.b.@.l.S.E.K.w 3                                 ",
"                                        } $.X.%.+.v 1 = , > = < + + - - > , Z v.v.k.S.S.T.Y.-.k                                 ",
"                                          X.X.[ X.] G / ( ( ( / ( / ( ( @.k.n.H.L._.).>.a -.                                    ",
"                                            &.X.X.X.o.X.+.+.o.o.+.+.X.+.b.n.n.H.H.}.}.8.r j                                     ",
"                                            A S S S $...+.%.X.+.+.+.m.n.b.J.O._ h.c.C.U.g..X                                    ",
"                                          y 8 * o c +.X.) +.+.+.+.N.H.I.H.I.U % $ 5 t XX                                        ",
"                                          f u 6 q P _ k.+.o.o.) _ G.H.).L.K.,.p s z h                                           ",
"                                                  ^.w d , ; 1 x x B d B a J (.                                                  ",
"                                                    r 6 5 & : & & & 5 6 t r                                                     ",
"                                                    a.r.t.4.p.5.5.5.t.t.i.u.                                                    ",
"                                                                                                                                ",
"                                                                                                                                ",
"                                                                                                                                ",
"                                                                                                                                ",
"                                                                                                                                ",
"                                                                                                                                ",
"                                                                                                                                ",
"                                                                                                                                ",
"                                                                                                                                ",
"                                                                                                                                "
};
