/* XPM */
static char *_e3450bf3a6d417da61d27c91edd020frlz5DXnHH0fg2dNZ[] = {
/* columns rows colors chars-per-pixel */
"64 64 243 2 ",
"   c None",
".  c #0A0100",
"X  c #070401",
"o  c #140101",
"O  c #1C0100",
"+  c #1F0E00",
"@  c #1A1310",
"#  c #250200",
"$  c #2C0100",
"%  c #230A00",
"&  c #2D0D01",
"*  c #2C0109",
"=  c #26090D",
"-  c #330401",
";  c #3B0301",
":  c #330B02",
">  c #3C0C00",
",  c #360A0D",
"<  c #3A0A0B",
"1  c #2D1000",
"2  c #2B1C09",
"3  c #351302",
"4  c #33130B",
"5  c #3B1D0D",
"6  c #371805",
"7  c #2B0D12",
"8  c #390912",
"9  c #261915",
"0  c #341D12",
"q  c #3B1616",
"w  c #37230A",
"e  c #3C2314",
"r  c #3A241C",
"t  c #342B16",
"y  c #392727",
"u  c #342925",
"i  c #430301",
"p  c #4C0404",
"a  c #4A0B03",
"s  c #440B0C",
"d  c #4C0A0C",
"f  c #4A0807",
"g  c #540104",
"h  c #520B0B",
"j  c #570908",
"k  c #4B1401",
"l  c #4C1C01",
"z  c #461909",
"x  c #591707",
"c  c #450B16",
"v  c #540A11",
"b  c #451A16",
"n  c #46240B",
"m  c #49260A",
"M  c #4B2A0D",
"N  c #442105",
"B  c #562408",
"V  c #442413",
"C  c #4C2413",
"Z  c #4B2A13",
"A  c #452B1B",
"S  c #4B2C1A",
"D  c #452819",
"F  c #562A17",
"G  c #49331B",
"H  c #573116",
"J  c #65280D",
"K  c #672C17",
"L  c #66381A",
"P  c #713B1F",
"I  c #462A24",
"U  c #542F23",
"Y  c #4C3323",
"T  c #49392B",
"R  c #523A22",
"E  c #5A3827",
"W  c #493A3A",
"Q  c #523836",
"!  c #653822",
"~  c #723B23",
"^  c #76451E",
"/  c #6D461B",
"(  c #5B402D",
")  c #594227",
"_  c #534736",
"`  c #6A4728",
"'  c #784629",
"]  c #6B4836",
"[  c #784936",
"{  c #7A5537",
"}  c #725631",
"|  c #70603E",
" . c #58504D",
".. c #684D45",
"X. c #7D4D43",
"o. c #7B5A45",
"O. c #69504C",
"+. c #776448",
"@. c #666356",
"#. c #7D6259",
"$. c #776B61",
"%. c #83543D",
"&. c #85573A",
"*. c #865331",
"=. c #8E663C",
"-. c #8D5B43",
";. c #875948",
":. c #925C45",
">. c #895C50",
",. c #89654A",
"<. c #9B6549",
"1. c #966649",
"2. c #9C714E",
"3. c #8B6659",
"4. c #946955",
"5. c #9D7757",
"6. c #8B7053",
"7. c #A46D45",
"8. c #A46F5C",
"9. c #A57757",
"0. c #B67B58",
"q. c #A2724C",
"w. c #967863",
"e. c #957370",
"r. c #A77B62",
"t. c #B57D64",
"y. c #A97D7A",
"u. c #B68158",
"i. c #AC805B",
"p. c #93886D",
"a. c #AB8668",
"s. c #BA8769",
"d. c #BB936B",
"f. c #B5916D",
"g. c #B38E75",
"h. c #BB8C73",
"j. c #BC8A77",
"k. c #BB947A",
"l. c #C58C57",
"z. c #C58A68",
"x. c #C79369",
"c. c #D79A6C",
"v. c #C99876",
"b. c #D79A77",
"n. c #D08B6C",
"m. c #E29D74",
"M. c #CEA37D",
"N. c #C4A47E",
"B. c #DAA47E",
"V. c #D7A677",
"C. c #D1B07D",
"Z. c #E4AA7B",
"A. c #E7B37D",
"S. c #F6B47F",
"D. c #E3A16F",
"F. c #999385",
"G. c #B69B89",
"H. c #B7A69B",
"J. c #ACA18F",
"K. c #B9B0AD",
"L. c #C69789",
"P. c #D39D86",
"I. c #C8A888",
"U. c #D5AB83",
"Y. c #DBAA83",
"T. c #D6A888",
"R. c #D9B587",
"E. c #DAB898",
"W. c #CCAC8F",
"Q. c #E5AB87",
"!. c #E3BB84",
"~. c #E6B58B",
"^. c #EAB38C",
"/. c #EBBC8C",
"(. c #E8B987",
"). c #F2B88A",
"_. c #E2B394",
"`. c #E3BB93",
"'. c #ECBD92",
"]. c #EBBB9A",
"[. c #E9BA9B",
"{. c #F2BC95",
"}. c #FDBC94",
"|. c #F5B795",
" X c #F0AD8D",
".X c #CBBFAD",
"XX c #D4BDB6",
"oX c #F9BDA1",
"OX c #EDC28B",
"+X c #EAC086",
"@X c #F2C28D",
"#X c #F8C389",
"$X c #ECC394",
"%X c #ECC59C",
"&X c #E7C69A",
"*X c #F3C494",
"=X c #FCC296",
"-X c #F3C49B",
";X c #FBC49A",
":X c #FCCB9D",
">X c #F6CE97",
",X c #ECD19C",
"<X c #F2D09D",
"1X c #FCD59D",
"2X c #DCC9A8",
"3X c #D8C4B8",
"4X c #CEC4A1",
"5X c #E6C6A5",
"6X c #FAC4A3",
"7X c #F3CAA3",
"8X c #FCCDA3",
"9X c #F3CCAB",
"0X c #FECCAB",
"qX c #F4C6A4",
"wX c #F3D2A4",
"eX c #FDD5A3",
"rX c #FDDCA5",
"tX c #FED4AC",
"yX c #FDD9A9",
"uX c #F3D7A6",
"iX c #E5C7B9",
"pX c #FCD4B4",
"aX c #FED6BA",
"sX c #FCC9B8",
"dX c #FDE2A9",
"fX c #FFE5B4",
"gX c #FFE5BC",
"hX c #FFEABE",
"jX c #DAC9C2",
"kX c #DDD5C2",
"lX c #E5D6C6",
"zX c #E6D5D1",
"xX c #F1D3C5",
"cX c #FDE9C6",
"vX c #FFF2C2",
"bX c #FFF5CD",
"nX c #FCEBD5",
"mX c #FFF5DB",
"MX c #F7ECE7",
"NX c #FFF5ED",
"BX c #FFF9E4",
"VX c #FFF9F4",
"CX c #FEFBF9",
/* pixels */
"                                                                                                                                ",
"                                                                                                                                ",
"                                                                                                                                ",
"                                                                                                                                ",
"                                                                                                                                ",
"                                                        T ..) R ( E                                                             ",
"                                                  3.3.3.;.%.1.9.2.&.                                                            ",
"                                          Q ( ` %.1.8.s.[.6X;X:X:X8Xh.j.                                                        ",
"                                          [ ,.=.M.R.`.-XgX*X!.+X!.V.6X0XoXP.                                                    ",
"                                      # [ [.~.$XrXrXfXeX:X$X@X(.(.(.c.b.|.|.8X~.                                                ",
"                                    3.1.0.{.*X!.1XdX,X<X$X(.'.*X#X#X). X}.}.)./.&X                                              ",
"                                  5 [ b.Z.=X/.!.dXuXR.OX/.{.'./.A.l.c.n.n.b.;X/.fX                                              ",
"                                  V -.b.m.}.).$X&X$X-X;X|.|. Xz.x.c.{.0XP L d.d.bX} O                                           ",
"                                  5 -.^.Q.=X~.].{ 2.{.^.}.}.Q.T.R.%X} E z } %XR.I.) O                                           ",
"                                  9 6.7X'.'.H N I.5.: ^ *X-Xa.% +.mXY 2 2 | vXwX`.` #                                           ",
"                                    p.Z 5.9Xm & E.pXU.~./.yX&XW.4XBX$. .t +.vXrX*Xv.                                            ",
"                                      O {   M 3 U.8X:X;XV./.yXvXhXcXJ.F.@.p.vXeX).      I                                       ",
"                                          ( w.a.` q.{.B.v.v.R.<X,XgXlXnXkX2X&X/.                                                ",
"                                            Y w g.4.k B B k &.U.C.&XcXnXmXpXb.    ` O                                           ",
"                                                #.U z ! t.t.1.L ^ / v.I.        M                                               ",
"                                                    - C K l =.6XQ.v.! S A e S V %                                               ",
"                                                  r > z ' k K K K K ; #                                                         ",
"                                                y _ 5X_.aXs.' ; a p i c 8 q = Q                                                 ",
"                                                T +.9X%X-X].%.# i f v f < # , 7 u                                               ",
"                                                Y } wX!.$X`.;.# $ d h p a a s , .                                               ",
"                                                R { <X+XeX`.o.O $ ; ; a a ; s 4 .                                               ",
"                                                R } >X@XfX&X#.o * c $ : # # o 9                                                 ",
"                                                R { eX@XyX[.#.O * 8 8 8 7 W                                                     ",
"                                                Q { 8X(.OX`.o.O # s c c o  .                                                    ",
"                                                Q o.0X(.(.8XE.G.r.- ; $ O y W @.                                                ",
"                                                y ] _.Q.@X@XyXhX<X'.B > b : : & A e U D I r                                     ",
"                                                I : L *.Z.Z./.$XOXC.=.' h.L.j.k.E.] - X.3.4                                     ",
"                                            9 = , d i k x z.{.'.*XrXyXgX5XpXmXnXxX` > X.>.&                                     ",
"                                          9 7 # s d a a a J <.M.U.$X7X$XgX9X,.g.aX' > 4.4.D                                     ",
"                                          o q s d p j j x ; - 6 L E.wXhXwXwXgX[.l %.-.C ..                                      ",
"                                          . q ; d f p p g h s # 3 N k.I.2X2XE.f.> -.j.E ..                                      ",
"                                          . 7 , , s d h g j h i , o % + 2 w w w 3 n 3 H.                                        ",
"                                            9 o # $ - ; j g g v 8 7 o . X _ lX.X3XlX.X                                          ",
"                                            X o # ; f i j g g f 8 * o @ X  .                                                    ",
"                                            @ o z k x x j j x h s < # o .  .                                                    ",
"                                            u & L.sXaX6X|. XQ.b.b.s.z 6 % $.                                                    ",
"                                              lX] 4.aX-X).}.A.c.0.J ' { V #.CX                                                  ",
"                                              NXY ` tXQ.D.S.Z.A.u.; &.-.b #.CX                                                  ",
"                                              NXR { '.V.c.S.#X1Xx.> 8.L.b O.CX                                                  ",
"                                            T w N.%XdX1X).}.x.*.[ b 8.y.O.e.CX                                                  ",
"                                            Y 1 N.eXfXeX^.^.<.- B >.F # XXCX                                                    ",
"                                            A & M.^.*X).{.z.%.l ~ :.F & XXVX                                                    ",
"                                            T V a.Y.;X~.B.B F 1.<.v.H 1 3XVX                                                    ",
"                                            MXBXE { 0X^.Q.' ^ ' :.j.F & XXVX                                                    ",
"                                              VXG { pX~.^.^.<.; ~ P.U $ iXVX                                                    ",
"                                            zXlX] 1.qXY.V.Q.<.> P 8.F z L.iXjXzX                                                ",
"                                            0 O W._.0.b.tX0Xt.l B B %.%.S 5 0 ..NXCXCXVXCX                                      ",
"                                        MXXX] L U.{.=XV.7.^.]._._.].{ L ! ,.w.3.0 J.zXjX3XjXjXjX                                ",
"                                        H.% iX9XB.Z.}.=X{.{.qX9XqXqXqXpX&.m H S S 5 4 0 e r D o K.CX                            ",
"                                          % a.a.9.7.u.7.9.9.r.4.2.d.i.a.d.k.h.g.4.H 5 E o.w.3.% K.                              ",
"                                          r D Z M N l M n V 5 S n N m n M Z n Z S V V Y A e Y 2                                 ",
"                                                                                                                                ",
"                                                                                                                                ",
"                                                                                                                                ",
"                                                                                                                                ",
"                                                                                                                                ",
"                                                                                                                                ",
"                                                                                                                                ",
"                                                                                                                                "
};
