/* XPM */
static char *d56931b9cbdd4ec8df67d7842d0a9286qlycTCHkSqsQFihN[] = {
/* columns rows colors chars-per-pixel */
"64 64 225 2 ",
"   c None",
".  c #946D0F",
"X  c #8F730F",
"o  c #9D7305",
"O  c #94720D",
"+  c #9B730D",
"@  c #8E6D15",
"#  c #8E6E1C",
"$  c #926D15",
"%  c #996E13",
"&  c #956F1A",
"*  c #8C7114",
"=  c #87741C",
"-  c #8D721B",
";  c #877513",
":  c #937314",
">  c #9B7313",
",  c #9C7A14",
"<  c #94731B",
"1  c #9B7119",
"2  c #937A1C",
"3  c #9C7C1B",
"4  c #947B17",
"5  c #A57C0B",
"6  c #A17614",
"7  c #A17C13",
"8  c #A2761C",
"9  c #A37B1B",
"0  c #AA7F17",
"q  c #8A6B23",
"w  c #857321",
"e  c #8C7223",
"r  c #8C732B",
"t  c #887626",
"y  c #927322",
"u  c #9D7C23",
"i  c #9C7C2B",
"p  c #967627",
"a  c #856F37",
"s  c #8C7433",
"d  c #897738",
"f  c #907434",
"g  c #947A33",
"h  c #9E7C33",
"j  c #91783B",
"k  c #A17F23",
"l  c #A07C30",
"z  c #8A7540",
"x  c #8D764A",
"c  c #947C4A",
"v  c #967F54",
"b  c #9C811A",
"n  c #A1800F",
"m  c #AA8516",
"M  c #B48C1D",
"N  c #B18718",
"B  c #AF921C",
"V  c #BB941F",
"C  c #9D8124",
"Z  c #9E852F",
"A  c #8F823F",
"S  c #9D833B",
"D  c #9A8232",
"F  c #A58324",
"G  c #AA8523",
"H  c #A2822C",
"J  c #A9862D",
"K  c #AD8C2A",
"L  c #AC8C24",
"P  c #B38A24",
"I  c #B38A2A",
"U  c #B28626",
"Y  c #B69326",
"T  c #BA9327",
"R  c #B4932D",
"E  c #BA922A",
"W  c #BE9B29",
"Q  c #A38433",
"!  c #AB8C34",
"~  c #AC8E3B",
"^  c #A48739",
"/  c #B38C33",
"(  c #B18C3C",
")  c #AC9032",
"_  c #AE953C",
"`  c #AF993D",
"'  c #B39234",
"]  c #BD9934",
"[  c #B3933B",
"{  c #B5993C",
"}  c #BB9A3B",
"|  c #B99336",
" . c #BEA135",
".. c #C39B2C",
"X. c #C29729",
"o. c #C49B34",
"O. c #C99C33",
"+. c #C39D3C",
"@. c #CC9E3B",
"#. c #C39734",
"$. c #CCA626",
"%. c #C5A22D",
"&. c #CBA42C",
"*. c #C5A333",
"=. c #CCA434",
"-. c #CBA933",
";. c #C5A33B",
":. c #CCA33B",
">. c #CDA93C",
",. c #D0A434",
"<. c #D0A63C",
"1. c #D1A93A",
"2. c #D2A935",
"3. c #99854C",
"4. c #94895B",
"5. c #98895B",
"6. c #AA8B44",
"7. c #A58841",
"8. c #AE9248",
"9. c #B59444",
"0. c #BA9442",
"q. c #B49A44",
"w. c #BC9A42",
"e. c #B49C4A",
"r. c #B8994B",
"t. c #AB9B55",
"y. c #AD9A5C",
"u. c #AA9659",
"i. c #B39D54",
"p. c #B89A54",
"a. c #B28C41",
"s. c #BDA14B",
"d. c #B7A34C",
"f. c #B9A359",
"g. c #968664",
"h. c #AE9761",
"j. c #AC9A64",
"k. c #A79669",
"l. c #B09A60",
"z. c #BBA66E",
"x. c #BAA763",
"c. c #B5A575",
"v. c #AEA379",
"b. c #C19E42",
"n. c #C19E4A",
"m. c #C79B41",
"M. c #C09D52",
"N. c #C4A242",
"B. c #CCA443",
"V. c #CCA944",
"C. c #C5A44A",
"Z. c #CCA44A",
"A. c #CDAA4C",
"S. c #C6AD4D",
"D. c #D3AC44",
"F. c #D1A74C",
"G. c #D3AE49",
"H. c #D0A640",
"J. c #D3B14D",
"K. c #D9B24D",
"L. c #D6B045",
"P. c #C3A454",
"I. c #CBAB54",
"U. c #C7A556",
"Y. c #D2AE53",
"T. c #D6AE5A",
"R. c #CCB257",
"E. c #D4B254",
"W. c #D4B25B",
"Q. c #DAB45C",
"!. c #D4BA5B",
"~. c #DBBA5C",
"^. c #D9B655",
"/. c #E2BC5B",
"(. c #C9AC67",
"). c #D4AE6A",
"_. c #CFB06D",
"`. c #D5B363",
"'. c #DAB663",
"]. c #D6BB62",
"[. c #DCBC64",
"{. c #D3B36C",
"}. c #DBBD6C",
"|. c #D6BE6A",
" X c #DBBD74",
".X c #D6B874",
"XX c #CBAC71",
"oX c #E2BD64",
"OX c #E5BE6B",
"+X c #E6BF72",
"@X c #DFC065",
"#X c #DCC16B",
"$X c #DDC374",
"%X c #DEC47A",
"&X c #E2C167",
"*X c #E3C36C",
"=X c #E4C472",
"-X c #EAC974",
";X c #E5C57A",
":X c #E4CB7C",
">X c #ECCB7A",
",X c #E8C777",
"<X c #F1D17E",
"1X c #B8AA86",
"2X c #BBAF9A",
"3X c #C5AD86",
"4X c #CFBA80",
"5X c #D3BF83",
"6X c #DCC482",
"7X c #E3CB84",
"8X c #E6CB89",
"9X c #EBCC8C",
"0X c #E8C782",
"qX c #EBD18C",
"wX c #EBD185",
"eX c #F4D384",
"rX c #F3D48B",
"tX c #EACD95",
"yX c #EDD193",
"uX c #F6D696",
"iX c #F8D8A7",
"pX c #FAD9B2",
"aX c #FBDFB8",
"sX c #F8E1AF",
"dX c #FFE6BD",
/* pixels */
"                                                                                                                                ",
"                                                                                                                                ",
"                                                                                                                                ",
"                                                                                                                                ",
"                                                                                                                                ",
"                                                                                                                                ",
"                                                                                                                                ",
"                                                                                                                                ",
"                                                                                                                                ",
"                                                                                                                                ",
"                                              1Xj.y.i.i.t.y.h.h.t.t.f.u.j.k.                                                    ",
"                                              3.r - * - - e r e 2 ; = w g a                                                     ",
"                                              6.i H J J Q Q h y * b C C Z S 4X                                                  ",
"                                          j 6.q.C.Y.oXoXOX=XU.y : +.J.E.@X].i.a 5.                                              ",
"                                        6Xi 3 o.:.G./.oX&X*XS.< < b.Y.Y.oX'.q.t 3.                                              ",
"                                    3Xz.r.| E :.=.:.G.J.A.E.E.C.U.0./ | Q.~.I.P.x.c.v.                                          ",
"                                    j < R D.:.<.=.=.-.*.;.N.Y.-X>Xa.@ k E.W.*X;X}.g s                                           ",
"                                    Q , M 1.D.O.O...W %.O.+.Z.OX=X9.i ! C.C.[.[.`.Q D                                           ",
"                              2Xx S } *.-.:.B.9 6 , 7 7 , + G V.Y.Q.*XW.C : } E.Q.[.#Xi.A 4.                                    ",
"                              1Xs y ;.-.1.<.B.8 % > 9 9 > O m ;.N.&X<X`.y @ R J.W.=X-Xe.w d                                     ",
"                              1Xr :  .%.%.X.X.P P E +.} | ' I K K Y.}.{.U.U.{ K w.`.}.s.t d                                     ",
"                              z.< m -.=.V N N =.:.K./.[.Q.Y.| , : C.`. X9X0X[ * u W.}.q.; D                                     ",
"                              (.: n W =.X.N m %.=.L./.~.'.Q.w.: : b.W.`.9XyXe.: : ^.~.[ 4 ~                                     ",
"                          5.3.8. ...>.=.M o 5 ..=.-.B.A.'.*XC.< < b.~.].9X9Xr.* b >.B.J.E.s.8.v                                 ",
"                          z r ' *.-.:.:.P o o ..=.:.+.Z.oX-XC.: < w.~.!.9XtXp.< , *.V.G.~.Q.h a                                 ",
"                          d < R -.%.P I P P M %.=.:.:.B.Y.~.E.C.n.0.[ s.yXyXp.< , *.V.E.oX`.i s                                 ",
"                          s < Y :...8 1 U :.%.&.&.=.:.:.N.C.Q.>X>X9.y ~ yXiXp.< , ;.A.Q.OX'.l s                                 ",
"                          s : T :.#.8 % U <.-.$.$.&.=.:.:.b.W.eXeX9.# ^ 9XuXp.< 3 B.F.T.OX'.i r                                 ",
"                          f : T :.#.8 1 U :.$.$.$.$.&.=.>.N.Y.>X-X[ - Q $X:X{ O , :.Z.Q.OXQ.C e                                 ",
"                          f : T <.#.8 1 P :.&.$.$.$.&.&.-.;.E.,X-X! - H |.[.) O 7 :.F.T.OX~.b w                                 ",
"                          f < T 2.X.> > P :.-.=.=.,.,.&.%.*.E.*X=X! - Q |.#X' : 7 :.F.Q.+X[.C =                                 ",
"                          j < T =.X.6 > P :.=.=.:.@.,.,.&.*.G.~.'.Q < ^ #X=X{ . 3 B.F.'.;X}.C w                                 ",
"                          j < T :...8 % U <.=.=.:.m.:.=.&.=.V.^.~.J @ Z $X=X[ : 3 B.B.Q.;X XC -                                 ",
"                          f < T >.] 1 % P 2.&.&.:.@.:.=.&.&.>.K.K.G * Z $X:X{ : 3 B.V.!.;X%XC e                                 ",
"                          f : T >.] > > P =.$.$.&.=.=.=.&.=.1.G.G.G < Q 6X7X` : 8 Z.V.~.7X%Xk e                                 ",
"                          f : Y -.W , > P =.$.$.$.&.=.=.=.=.:.G.D.G & ^ tXyX` X 8 Z.B.~.7X%XH r                                 ",
"                          s : Y =.W , O L >.-.$.$.$.=.=.=.=.H.G.J.F $ 6.iXsXd.: 8 B.B.[.8X6XH y                                 ",
"                          s < Y -.W 7 > P ;.*.&.&.&.=.:.B.V.F.A.V.K 1 6.pXdXf.* 9 B.B.[.qX7XQ r                                 ",
"                          d y R :.*.P U I U P *.&.-.:.B.Q.OXT./ / ' / M.pXaXi.@ 3 :.B.[.qX8XQ s                                 ",
"                          z r [ ;.1.:.B.I % + ..&.-.*.Z.>XuX).y & } Y.`.pXpXp.< 3 ;.V.&XrX8X                                    ",
"                          5.3.8.+.#.<.:.I . + *.-.%.;.I.0XyX_.p < w.I.{.iXiXP.< 3 S.N.[.>X                                      ",
"                                3 0 ..=.P > + o.%.>.G.I.;XuX_.e < Y.=X%X9X9Xr.# 2 S.E.{ u 6.                                    ",
"                                $ 5 =.=.N o 6 +.:.D.J.I.,XwXR.y < I. X7XrXeXn.@ C R.].~ < g                                     ",
"                                # O =.&.W P P U I U ' ' C.s.q._ } [.8X6XM.w.[ ! _ |.$X9.y j                                     ",
"                                  4 ;.-.=.O.@.8 1 % > : : @ ) !.].=XqX.Xp < } A.R.:XeXP.q c                                     ",
"                                  S {  .=.=.:.9 6 > > > , : _ |.#X}.8X{.i < } A.`.$X;X(.c g.                                    ",
"                                    ^ 3 B &.=.X.O.O.#.o.A.I..X9XwXi.7.6.P.I.~.~.I.^ h XX                                        ",
"                                    z e L -.%.2.=.,.:.B.Q.'.0XuXuX8.q i `.T.~.*X`.p f 3X                                        ",
"                                    1Xz.e.' Y =.2.=.<.G.Q.}. X_.).r.( [ Q.[.S.d.f.z.v.                                          ",
"                                        5Xr < ] =.D.K.^.[.}.P.p p 0.Y.Y.&X#Xe.r 3.                                              ",
"                                          a S w.N.D.K.K.~.oXn.< < b.E.Q.*X}.i.a 4.                                              ",
"                                              6.i u k F F J H < : k F i Q 7.4X                                                  ",
"                                              3.s e - < - - y y 2 * = e g a                                                     ",
"                                              1Xk.j.h.y.y.y.l.u.t.t.y.u.k.k.                                                    ",
"                                                                                                                                ",
"                                                                                                                                ",
"                                                                                                                                ",
"                                                                                                                                ",
"                                                                                                                                ",
"                                                                                                                                ",
"                                                                                                                                ",
"                                                                                                                                ",
"                                                                                                                                ",
"                                                                                                                                "
};
