/* XPM */
static char *_fc94d9d4f1c4d51b8c79ac444e5965dKLYIhdSwLEKsAf20[] = {
/* columns rows colors chars-per-pixel */
"64 64 200 2 ",
"   c None",
".  c #7F7233",
"X  c #996E0C",
"o  c #906E03",
"O  c #95730E",
"+  c #9A740D",
"@  c #927508",
"#  c #936E15",
"$  c #9C6E15",
"%  c #956E18",
"&  c #9D6F1A",
"*  c #87721D",
"=  c #8D731D",
"-  c #8C791C",
";  c #957414",
":  c #9A7315",
">  c #967814",
",  c #9D7913",
"<  c #94721A",
"1  c #9B731A",
"2  c #96781E",
"3  c #9D7C1A",
"4  c #A17616",
"5  c #A37D14",
"6  c #A97E15",
"7  c #A27B1C",
"8  c #AB7E18",
"9  c #836F2A",
"0  c #936F25",
"q  c #936E2C",
"w  c #8C7423",
"e  c #8C7A22",
"r  c #84722C",
"t  c #8D742C",
"y  c #847522",
"u  c #957424",
"i  c #9B7522",
"p  c #957C22",
"a  c #9A7C27",
"s  c #95722A",
"d  c #957B2A",
"f  c #997B2B",
"g  c #816E36",
"h  c #897533",
"j  c #877533",
"k  c #957936",
"l  c #9A7A32",
"z  c #967838",
"x  c #A47E24",
"c  c #A37E2C",
"v  c #8E7846",
"b  c #9B8118",
"n  c #A18117",
"m  c #AB8117",
"M  c #A5841B",
"N  c #AB8A1B",
"B  c #AF861C",
"V  c #B1921C",
"C  c #968025",
"Z  c #9C822B",
"A  c #9A8228",
"S  c #9F893E",
"D  c #AB8523",
"F  c #AE8C23",
"G  c #A5812C",
"H  c #A98329",
"J  c #AC8B2D",
"K  c #A68126",
"L  c #B28623",
"P  c #B48B24",
"I  c #BB8B25",
"U  c #BB8B2A",
"Y  c #B68B2D",
"T  c #B49024",
"R  c #BC9226",
"E  c #BC942E",
"W  c #BE9A2C",
"Q  c #AB8D32",
"!  c #AA8536",
"~  c #B18932",
"^  c #AD923A",
"/  c #B99736",
"(  c #B2943F",
")  c #BB993B",
"_  c #BB9338",
"`  c #C18F2E",
"'  c #C59C34",
"]  c #C99B31",
"[  c #C69F3A",
"{  c #CE9E3C",
"}  c #C19534",
"|  c #C1A02F",
" . c #C6A434",
".. c #CBA435",
"X. c #CAA932",
"o. c #C6A43B",
"O. c #CCA43A",
"+. c #CDA93B",
"@. c #D2A33B",
"#. c #D2AA3E",
"$. c #9C8645",
"%. c #9B854C",
"&. c #948258",
"*. c #A78B42",
"=. c #AE9545",
"-. c #B09440",
";. c #B79B47",
":. c #A08D5A",
">. c #AE9650",
",. c #AA9D57",
"<. c #AD9C5C",
"1. c #A49A5B",
"2. c #BDA556",
"3. c #A39A6A",
"4. c #AEA06F",
"5. c #B9A46E",
"6. c #C19C4B",
"7. c #C4A443",
"8. c #CDA443",
"9. c #C6A44C",
"0. c #CDA44C",
"q. c #CAAA4B",
"w. c #C2A94C",
"e. c #D1A444",
"r. c #D5AD45",
"t. c #D4AC4B",
"y. c #D4B247",
"u. c #C2A454",
"i. c #C7AA53",
"p. c #CDAC51",
"a. c #C3A45C",
"s. c #C7A858",
"d. c #CAAD59",
"f. c #CAA658",
"g. c #D3A750",
"h. c #D4AE55",
"j. c #CCB255",
"k. c #CBB25C",
"l. c #DBB455",
"z. c #D5B35A",
"x. c #D9B35C",
"c. c #DDB85E",
"v. c #D7B756",
"b. c #C4A666",
"n. c #CCB468",
"m. c #D3B565",
"M. c #DCB664",
"N. c #DFBB65",
"B. c #D2B56F",
"V. c #DAB96A",
"C. c #CBAD71",
"Z. c #C0AA71",
"A. c #CAB671",
"S. c #C7B87E",
"D. c #C9B87E",
"F. c #D3B674",
"G. c #D6BA73",
"H. c #DBBE73",
"J. c #D4BD78",
"K. c #DABE78",
"L. c #E2BF6B",
"P. c #E3BE77",
"I. c #D6C05D",
"U. c #DBC366",
"Y. c #DEC56B",
"T. c #CFC178",
"R. c #D1C173",
"E. c #D4C37B",
"W. c #DDC673",
"Q. c #E4C263",
"!. c #E2C16A",
"~. c #ECC665",
"^. c #E6C174",
"/. c #E2C173",
"(. c #E5C67B",
"). c #E3CA7C",
"_. c #E9CC78",
"`. c #E0D07B",
"'. c #B7A580",
"]. c #BDB18F",
"[. c #BEAF91",
"{. c #CBB481",
"}. c #C6B880",
"|. c #C6BB8E",
" X c #C9B88C",
".X c #C3B681",
"XX c #D2B380",
"oX c #C1B4A3",
"OX c #E5CC83",
"+X c #ECCC83",
"@X c #E9CE8C",
"#X c #E4C680",
"$X c #EED087",
"%X c #E7D08D",
"&X c #ECD68C",
"*X c #EDDC9B",
"=X c #EAD596",
"-X c #F2DD9B",
";X c #F0D391",
":X c #F0E095",
/* pixels */
"                                                                                                                                ",
"                                                                                                                                ",
"                                                                                                                                ",
"                                                                                                                                ",
"                                                                                                                                ",
"                                                                                                                                ",
"                                                                                                                                ",
"                                                                                                                                ",
"                                                                                                                                ",
"                                                                                                                                ",
"                                                                                                                                ",
"                                                                      e                                                         ",
"                                                            b @ < f Z C w                                                       ",
"                                                          7.V + < 9.Q.q.d                                                       ",
"                                                        ) 8.U 4 & 0.Q.q.p                                                       ",
"                                                      / D D U U _ 0.l.v.d.                                                      ",
"                                                    o.o.3 : 8 { 8.t.t.x.+X;X                                                    ",
"                                                  D O. .3 O 8 @.O.o.O.h.+X@X=.                                                  ",
"                                                  L  . .n O 6 O.+.F : H P.#X(                                                   ",
"                                                  P O.' n o 6 O.' M O x ^.P.-.                                                  ",
"                                                  P P P F N R ..O.M ; G ^.^.i.(                                                 ",
"                                              ) e.I X + W +.#. . .n # G M.M.N.Y.                                                ",
"                                              [ { U : + W  .O.'  .M a ! x.N.N.z.k.d                                             ",
"                                            > ' @.U $ : |  .E 5 , 7./.a.c i 9.!.m.u                                             ",
"                                          w , ] @.U $ : W ..E : O p.(.n.i % 6.L.m.u                                             ",
"                                          = , ' @.U 1 1 W ..E : ; j.OXB.i % u.(.V.f                                             ",
"                                        S.= , ' @.U 1 1 W ..E : ; k.%XF.i < f.+XH.l                                             ",
"                                        S.= , ' O.P < 1 W ..E : < m.=XJ.u < s.$XK.l                                             ",
"                                        S.w 3 ' ..T ; : W ..E : u B.*XE.u # u.+XK.l                                             ",
"                                        }.w 1 ' X.V ; ; W ..E 1 u G.*XE.p < 2.OXK.z q                                           ",
"                                        }.w 1 ' X.V ; ; W ..E : u G.*XE.p < 2.OXJ.z q {.                                        ",
"                                        }.w i ' X.V ; ; W ..E : 0 F.*XT.p < u.OXK.z q XX                                        ",
"                                        }.w i ' X.V ; : W ..E : 0 F.*XR.u # u.OXH.l q XX                                        ",
"                                        }.w 1 ' X.V ; : W ..E 1 0 F.-XE.a < a.OXH.f 0 XX                                        ",
"                                        }.w 1 ' ..V ; : W ..E 1 u G.:XE.f 0 a.OXH.d 0 {.                                        ",
"                                        S.w 3 ' ..P ; : W ..E : u m.&XR.d 0 b.@XW.f s {.                                        ",
"                                        D.= 4 ] @.P 1 1 W ..E ; < d.`.n.s s C.-X).Z w {.                                        ",
"                                        D.= 4 ] @.U 1 1 W ..E ; < i.W.k.s s C.-X).Z w {.                                        ",
"                                        D.= , ] @.U & 1 W ..E ; 1 p.Y.k.u q b.&XW.C w {.                                        ",
"                                        }.w , ' @.U $ : W  .E : ; q.U.j.i 0 a.).U.p w {.                                        ",
"                                        .Xw : ' @.` $ X W ..W 7 7 9.v.7.! c u._.I.- t  X                                        ",
"                                          r 2 [ { U : + W  .+.O.8.J 2 Q z.M.x.v.j.p h |.                                        ",
"                                          . d ) e.I X , W ..#.r.t.D # K h.x.v.v.w.d g [.                                        ",
"                                          |.A.( Y I P P F N R #.r.F : H x.c.7.Q ;.A. X                                          ",
"                                              *.% L O.' n @ m @.] D 7 H 0.p.J < S                                               ",
"                                              $.% L  .' n O m ] ..T K ~ p.z.J = $.                                              ",
"                                              %.< L O. .3 O 6 ....o.0.x.L.!.Q w :.                                              ",
"                                              &.t H o.o.7 + 6 ..O.y.l.c.!._.=.h &.                                              ",
"                                                5.2.Q / D B I I } t.l.l.9.a.Z.'.oX                                              ",
"                                                    t = ) +.R 6 7 g.~.q.2 t                                                     ",
"                                                    v k ;.7.T 5 x 0.Q.q.a 9                                                     ",
"                                                        >.Z b > 2 a A p e j                                                     ",
"                                                        :.r * * * w - - y .                                                     ",
"                                                        ].4.1.<.<.<.,.,.1.3.                                                    ",
"                                                                                                                                ",
"                                                                                                                                ",
"                                                                                                                                ",
"                                                                                                                                ",
"                                                                                                                                ",
"                                                                                                                                ",
"                                                                                                                                ",
"                                                                                                                                ",
"                                                                                                                                ",
"                                                                                                                                "
};
