/* XPM */
static char *c782e7310d194a67d6a09db5482657abyawHLG3xS6Lvv3aG[] = {
/* columns rows colors chars-per-pixel */
"64 64 240 2 ",
"   c None",
".  c #0D0102",
"X  c #050003",
"o  c #140100",
"O  c #1C0000",
"+  c #1D0901",
"@  c #1D0408",
"#  c #1F1000",
"$  c #240100",
"%  c #2B0201",
"&  c #230A00",
"*  c #2B0D01",
"=  c #2F000A",
"-  c #330201",
";  c #3C0202",
":  c #3B0903",
">  c #35050C",
",  c #3C040B",
"<  c #350A05",
"1  c #2C1302",
"2  c #2B1809",
"3  c #321304",
"4  c #3A1501",
"5  c #321C01",
"6  c #3C1B03",
"7  c #391B0B",
"8  c #3F0E11",
"9  c #291B11",
"0  c #3D220D",
"q  c #2F271A",
"w  c #392514",
"e  c #440202",
"r  c #4B0202",
"t  c #4B0A03",
"y  c #44040A",
"u  c #4C040B",
"i  c #440B0A",
"p  c #4C0B0B",
"a  c #440802",
"s  c #530202",
"d  c #5A0302",
"f  c #530904",
"g  c #52030A",
"h  c #5B0309",
"j  c #520B0C",
"k  c #590808",
"l  c #421400",
"z  c #471707",
"x  c #561308",
"c  c #4A0910",
"v  c #530E12",
"b  c #491715",
"n  c #581917",
"m  c #600806",
"M  c #442209",
"N  c #552A0D",
"B  c #47281A",
"V  c #542918",
"C  c #573716",
"Z  c #51350E",
"A  c #693015",
"S  c #4D3928",
"D  c #5C3525",
"F  c #5F3D31",
"G  c #643528",
"H  c #743B29",
"J  c #713F34",
"K  c #5C441E",
"L  c #5C4637",
"P  c #504330",
"I  c #6C472A",
"U  c #794626",
"Y  c #6E4B34",
"T  c #6A4637",
"R  c #774836",
"E  c #6A5337",
"W  c #7B5135",
"Q  c #7C593D",
"!  c #72512E",
"~  c #6F613A",
"^  c #5D4E46",
"/  c #685749",
"(  c #785948",
")  c #6A5E51",
"_  c #6A4C44",
"`  c #7D654E",
"'  c #756454",
"]  c #7A756D",
"[  c #834837",
"{  c #895533",
"}  c #966536",
"|  c #8F603A",
" . c #A66C3C",
".. c #865843",
"X. c #925A49",
"o. c #88654A",
"O. c #95684C",
"+. c #98754A",
"@. c #876A58",
"#. c #986C53",
"$. c #88725F",
"%. c #9C7456",
"&. c #A87D4A",
"*. c #A46A56",
"=. c #A7755A",
"-. c #B57A5A",
";. c #867966",
":. c #977968",
">. c #887872",
",. c #977B72",
"<. c #936F61",
"1. c #A97464",
"2. c #B67B64",
"3. c #AE825A",
"4. c #B9845C",
"5. c #B7844F",
"6. c #88836D",
"7. c #97836B",
"8. c #998777",
"9. c #B6876A",
"0. c #A48B73",
"q. c #B48B72",
"w. c #BC8977",
"e. c #BA9175",
"r. c #BC977A",
"t. c #AE8A72",
"y. c #C6855C",
"u. c #CA8864",
"i. c #C8946A",
"p. c #D3936C",
"a. c #DB9A6C",
"s. c #D79668",
"d. c #C58E73",
"f. c #C79978",
"g. c #DC9D74",
"h. c #D59E79",
"j. c #DE8A77",
"k. c #E09B71",
"l. c #CDA478",
"z. c #DBA27C",
"x. c #D8A57A",
"c. c #D7B37B",
"v. c #CEA16E",
"b. c #E4AA7B",
"n. c #E6A678",
"m. c #E5B57D",
"M. c #F0B57D",
"N. c #9E8D84",
"B. c #8D8280",
"V. c #B69886",
"C. c #A38F83",
"Z. c #BAA69A",
"A. c #B3A897",
"S. c #BBACA2",
"D. c #BFAEAA",
"F. c #BCB5A8",
"G. c #C39A84",
"H. c #D89D83",
"J. c #E39E86",
"K. c #C8A588",
"L. c #D6A688",
"P. c #DBB587",
"I. c #D9A991",
"U. c #DAB291",
"Y. c #D8B695",
"T. c #E5AD8B",
"R. c #EBAC8B",
"E. c #E6A786",
"W. c #E5B384",
"Q. c #EDB483",
"!. c #EDBC85",
"~. c #E5B48D",
"^. c #EAB58C",
"/. c #E5BC8B",
"(. c #ECBB8C",
"). c #E3B881",
"_. c #F4B684",
"`. c #F0BB84",
"'. c #F2B58A",
"]. c #F2BC8C",
"[. c #FBBC8A",
"{. c #E5AE95",
"}. c #E3B393",
"|. c #ECB393",
" X c #EDBC93",
".X c #E6BA96",
"XX c #F3BC93",
"oX c #FABC95",
"OX c #F4BC9B",
"+X c #F4B193",
"@X c #F5A88E",
"#X c #C5B4A7",
"$X c #C9B7B2",
"%X c #CFB5A9",
"&X c #E9BDA3",
"*X c #BEC7BE",
"=X c #E5C28D",
"-X c #ECC18D",
";X c #EDC387",
":X c #F2C38B",
">X c #F6C48B",
",X c #ECC494",
"<X c #EAC59A",
"1X c #F4C394",
"2X c #FCC395",
"3X c #F4C39B",
"4X c #FBC49B",
"5X c #F4CB9B",
"6X c #FDCC9C",
"7X c #F7CB95",
"8X c #FCD29D",
"9X c #F6D19A",
"0X c #D7C3B6",
"qX c #EDC8A5",
"wX c #FCC6A1",
"eX c #FECCA3",
"rX c #F4CDAC",
"tX c #FBCEAB",
"yX c #F5C5A6",
"uX c #F4D4A4",
"iX c #FDD4A3",
"pX c #FFDBA7",
"aX c #FCDCAD",
"sX c #FBD4AA",
"dX c #FFDCB3",
"fX c #FBD8BA",
"gX c #F1CFA9",
"hX c #FEE1AE",
"jX c #FFE4B4",
"kX c #FFE9B4",
"lX c #FFE6BC",
"zX c #FFF0B8",
"xX c #D5CCC6",
"cX c #DBD2CA",
"vX c #F0D4C8",
"bX c #FFF0D0",
"nX c #FEE6D1",
"mX c #FEFCF5",
"MX c #F8FCF6",
"NX c #EBE8E1",
/* pixels */
"                                                                                                                                ",
"                                                                                                                                ",
"                                                                                                                                ",
"                                                                                                                                ",
"                                                                                                                                ",
"                                                      $ 3 6 5 5 5 5 B                                                           ",
"                                                F D o.e.f.L. XP.P.l.G.I T                                                       ",
"                                            0 z q.f.U.qX/.3X].2X2X^.wX XH.I.4                                                   ",
"                                          K q.d..X XaXzXuX/.'.[._.n.n.'.oX Xf.o.S                                               ",
"                                          & qXwX X5XjXzXkXuX1X[._.[.[.s.M.].<Xo.o                                               ",
"                                      ^ @.r.<X XiXkXkXhXaX5X(.(.1X`.!.m.:X!.<Xl.t.;.                                            ",
"                                      o ( rX.X<XjXhXuX<X,X X X1X(.-X).:X7X8X,X<XfXL ^                                           ",
"                                      * W tXP.<XkX5X/. XXXXX1X,X/.,X,XP.pXkX5XU.gXY (                                           ",
"                                    L 4 W 3X=X=XhX,X(.oXXX].(./.,X/.=X=XhXpX,X/.tX! C (                                         ",
"                                      < W 3X1X].2X].XX].(.!.;X:X(.(.,XiX6X7X1XW.~.U C   $.)                                     ",
"                                o   &X- U 4X(.`.'.oXXX^.:X:X!.!.(./.1XjX7XW.2Xg.p.A U bX8.q                                     ",
"                                o     | u.oXm.(.XX X X3X^.2X>Xm.,XaXiX6X:X`.M.a.p.-.4.  7.9                                     ",
"                                          {      X3X X/.4XoXQ.7X1XaXiX].Q.Q.z.-.A L.}.o.;.                                      ",
"                                      ' @.  Q { ^. X-X!.(.b._.n.g.g.g.E.-.=.Y (   @.$.6.                                        ",
"                                      q     E o.-.E.!.:Xb.y.n.g.u.y.u.2.[ J T     >.]                                           ",
"                                                l U i.6XR.R.wXoXOX-.2.H n z N.                                                  ",
"                                          w M M N ; | |.J.E.E.T.H.[ H p v b B w 3 C.                                            ",
"                                      P 7.  rX{.e e x a e x e r t r r r n ; L.rXtX#.'                                           ",
"                                    S   fXqX}.L.p t e ; t e r r s s s e u p h.XX(.yXV.o >.                                      ",
"                                    C tXOX^.U A : i t r g u e e f r k r ; % z 3.7X,XV.O 8.                                      ",
"                                    C eX'.2X^.L.$ : t r g r e e r r k p % O % +.8X,Xq.$ ,.                                      ",
"                                  ;.Z 5X!.].6XL.$ > p r u s r r e t r y O o O.W.1X^.1.- ,.                                      ",
"                                  6.C 8X!.!.].L.$ > y e r s s r e r s u @ . L.1X].|.1.: ,.                                      ",
"                                  >.Z 8X`.>X1XU.O > y r s d s s j e r u $ o f.eX(.^.=.$ :.                                      ",
"                                  >.N 7X:XQ.h.9.O > c g h d f f f r h j $ o q. X'.^.=.$ :.                                      ",
"                                N.:.3.1X6XeXd.w.$ , r s s s s s f f d r $ $ 9. X2X^.f.o.:.V.                                    ",
"                              N.o %.tXi.h.{.A n ; y r s d k s s s k s k ; ; z *.T.h.I.vX=.3                                     ",
"                              :.W 9.|.-.1.R % - p f s s s s r s s h s s j t ; V ..#.d.yXd...A.#X                                ",
"                          8.` q.iX1X~.&X1.$ c n f f s s s s r r h h s f s s p : $ X.yXOXOXyXQ ` N.                              ",
"                        _ + K.rX/.(.U.K.<.$ v r s d s s f t r r s m d d s s v ; O o.U.}.3X XiXY.o                               ",
"                        ' 1 K.qX;X7Xr.o $ : t x d d s s t a e r s d d s d r j i z o Z uXW.2XQ.f.2                               ",
"                        ' & Y.lXm.7Xr.O ; p r s d d h s r ; - ; j r f s k g g y i O K uXW._.n.4.2                               ",
"                        ) & &XqXi.-Xe.$ y r r f s h g u > $ o O : a j r g g e y : O C sXE.a.n.d.2                               ",
"                        ) + 0XqXp.3Xr.O - c g k s r , > @ . X . o 8 i ; p t ; c b % D fX|.J.H.2.9                               ",
"                            ' @.f.L.<.o % , u g f e - $ o . X . o $ $ e e r u y 8 $ B V.G.d.G (                                 ",
"                              N.* 1 2 . o % y u r f t ; , = o O ; ; r s s s v % o . o 9 & S                                     ",
"                                0XcX$XcXB.o b e x e t t a i O $ : t t f d d e > . ] xXxX                                        ",
"                                      mXmXcXB V K.3X~.z.J.*.1 E U.P.z.n.j.j.n ,.NXMX                                            ",
"                                        mXmX1 V 5XhXpX4X+X=.1 ~ uX1X1X2X@XJ.l Z.mX                                              ",
"                                        cXL G.f.v.:X7X'.R.*.O E aXc.:X>Xg.p.9.@.P *X                                            ",
"                                        D.* rX X} &.p.oX2.X.0.7.+.,X(.5. .} }.o.o A.                                            ",
"                                        $X4 .X=Xc.v.p.+XH G mXF.* }.,Xv.x.P.yX#.& Z.                                            ",
"                                        $X7 <X=XkXhX+XR.[ _   F.6 qX3X6XiX6XOX..%                                               ",
"                                        #X5 qX9X8X!.b.R.[ T   S.4  X1X6X(.^.|...$                                               ",
"                                        F.+ bXlX(.!.n.h.H T   #X4 ,X(.kX4X^.}...o                                               ",
"                                          / V.K. X'.a.p.U T   S.6 ~.eXeX^.~.q.@.^                                               ",
"                                            1 4 3XE.u.p.U T   D.4 T.^.XXi.e.O                                                   ",
"                                            9 M yXz.y.p.H T   S.4 z.h.XXi.9.5                                                   ",
"                                            / o./.n.s.g.U T   S.l p.E.4Xh.f.! 0.                                                ",
"                                          # nXdXv.M.n.b.U T   #Xl z.x.(.2XXX XW O                                               ",
"                                          0 +.&.!.>Xa.p.[ Y nXV.z XX4XdX^.XX=.U l                                               ",
"                                      O B Q dXjX1X1XQ.h.=.G 3 B W lXdX X3XOXR.*.R b                                             ",
"                                      * D Y O.%..XL.9.O...D B V Y O.%.<Xd.e.O.R Q 7                                             ",
"                                      + 1 7 * * 7 7 3 * 3 3 1 1 1 + 1 z 4 4 6 1 2 o                                             ",
"                                                                                                                                ",
"                                                                                                                                ",
"                                                                                                                                ",
"                                                                                                                                ",
"                                                                                                                                "
};
