/* XPM */
static char *_74279ccc5f24ca2dd272faaf77b1533242LGFDEOn7Dvrgb[] = {
/* columns rows colors chars-per-pixel */
"64 64 218 2 ",
"   c None",
".  c #8A6C0E",
"X  c #956D0B",
"o  c #996F0D",
"O  c #946F04",
"+  c #8B720B",
"@  c #8E780B",
"#  c #957205",
"$  c #95730B",
"%  c #9A730D",
"&  c #9D790D",
"*  c #9A7407",
"=  c #8C6F19",
"-  c #936E11",
";  c #9C6F12",
":  c #986E18",
">  c #8D7315",
",  c #8C731B",
"<  c #85731D",
"1  c #957013",
"2  c #9C7413",
"3  c #9D7A13",
"4  c #93711D",
"5  c #9A731B",
"6  c #947C1D",
"7  c #9D7C1C",
"8  c #A17614",
"9  c #A27A13",
"0  c #A2761B",
"q  c #A47D1C",
"w  c #A97D1C",
"e  c #8C6E2E",
"r  c #866F2B",
"t  c #867026",
"y  c #8C7224",
"u  c #8A742D",
"i  c #937423",
"p  c #9B7524",
"a  c #967D24",
"s  c #9C7C24",
"d  c #9E7B2D",
"f  c #90742A",
"g  c #8F6F34",
"h  c #8A7431",
"j  c #8C753C",
"k  c #8A7539",
"l  c #917631",
"z  c #9B7E30",
"x  c #927C3E",
"c  c #A37D22",
"v  c #A0762A",
"b  c #897542",
"n  c #897746",
"m  c #937C44",
"M  c #967E49",
"N  c #9C831A",
"B  c #A68217",
"V  c #A88317",
"C  c #AF8A17",
"Z  c #A5831A",
"A  c #AB841C",
"S  c #AD891C",
"D  c #A68F1D",
"F  c #B3871D",
"G  c #B38C1C",
"H  c #9A8025",
"J  c #9D812D",
"K  c #9C823A",
"L  c #9D8336",
"P  c #A48223",
"I  c #AC8523",
"U  c #AE8A24",
"Y  c #A2822A",
"T  c #A7892E",
"R  c #AD8A2B",
"E  c #B18522",
"W  c #B38B26",
"Q  c #B38728",
"!  c #B48C2B",
"~  c #B98E2C",
"^  c #B88D25",
"/  c #AF952D",
"(  c #B69125",
")  c #B99425",
"_  c #BF9B27",
"`  c #B5922B",
"'  c #BC952C",
"]  c #BD982B",
"[  c #AA8A36",
"{  c #A1893B",
"}  c #A88E3A",
"|  c #B28F31",
" . c #B58D38",
".. c #B49334",
"X. c #BC9531",
"o. c #B59A3C",
"O. c #BA993B",
"+. c #C49C2C",
"@. c #CA9D2E",
"#. c #C1972A",
"$. c #C39633",
"%. c #C49C33",
"&. c #C99E35",
"*. c #C49D3B",
"=. c #C99D3B",
"-. c #D09F36",
";. c #C5A42D",
":. c #CCA42D",
">. c #C6A82B",
",. c #CAA92D",
"<. c #C6A826",
"1. c #D0A22E",
"2. c #C6A234",
"3. c #CCA434",
"4. c #C7A931",
"5. c #CDA933",
"6. c #C5A33B",
"7. c #CCA33B",
"8. c #CDAB3C",
"9. c #C3A93B",
"0. c #D1A333",
"q. c #D1A936",
"w. c #D1A33A",
"e. c #D2AB3D",
"r. c #D4B63E",
"t. c #9A864A",
"y. c #9C8649",
"u. c #998958",
"i. c #95855B",
"p. c #A58C44",
"a. c #A78C49",
"s. c #B08F42",
"d. c #AA9046",
"f. c #B29546",
"g. c #BA9E45",
"h. c #BA9D49",
"j. c #AD9B57",
"k. c #AC9A5C",
"l. c #B09D5A",
"z. c #BEA152",
"x. c #BBA25C",
"c. c #918565",
"v. c #AD9961",
"b. c #AC9B6A",
"n. c #A5936D",
"m. c #B19D62",
"M. c #B4A167",
"N. c #BAA464",
"B. c #B7A56D",
"V. c #AEA076",
"C. c #ACA47A",
"Z. c #B5A77D",
"A. c #BBAB78",
"S. c #BBA674",
"D. c #C49D44",
"F. c #C49F4F",
"G. c #C4A344",
"H. c #CCA543",
"J. c #CEAA43",
"K. c #C2A24D",
"L. c #CDA54B",
"P. c #CCA94C",
"I. c #C6AC47",
"U. c #D4AA43",
"Y. c #D8AE45",
"T. c #D3AD4C",
"R. c #D0A74B",
"E. c #CEB342",
"W. c #D4B04A",
"Q. c #D4B143",
"!. c #C3A351",
"~. c #C9A652",
"^. c #CEAA54",
"/. c #CDAC5D",
"(. c #C0A15E",
"). c #D4AD5B",
"_. c #D1AC54",
"`. c #D4B354",
"'. c #D4B35C",
"]. c #DCBA5D",
"[. c #D9B454",
"{. c #CBAA69",
"}. c #CBB26A",
"|. c #D5B260",
" X c #DBBB63",
".X c #D7B668",
"XX c #C0AF7B",
"oX c #CEBC79",
"OX c #D4B777",
"+X c #D7BB7B",
"@X c #DABE7A",
"#X c #D8BB77",
"$X c #E1BA62",
"%X c #E2BE6F",
"&X c #E1C06C",
"*X c #E5C275",
"=X c #E4C47B",
"-X c #E9C77D",
";X c #EDCA7C",
":X c #B3A783",
">X c #BBAD88",
",X c #B7A986",
"<X c #BAB198",
"1X c #C3B482",
"2X c #CCBA82",
"3X c #CCB189",
"4X c #DDBF86",
"5X c #D3BF87",
"6X c #E3C481",
"7X c #E9C783",
"8X c #ECCC87",
"9X c #F0CF88",
"0X c #EDCD92",
"qX c #EECF98",
"wX c #F1CF92",
"eX c #F3D492",
"rX c #F5D49C",
"tX c #F8D696",
/* pixels */
"                                                                                                                                ",
"                                                                                                                                ",
"                                                                                                                                ",
"                                                                                                                                ",
"                                                                                                                                ",
"                                                                                                                                ",
"                                                                                                                                ",
"                                                                                                                                ",
"                                                                                                                                ",
"                                                                                                                                ",
"                                                    n.b.v.M.k.v.v.k.k.l.j.j.k.b.,X                                              ",
"                                                    k l y , , , i i , , , , y u M                                               ",
"                                                  OXz s 7 Z N + - 7 c 7 q P Y d a.                                              ",
"                                              u.e [ *.7.2.2.` $ 2 ' H.H.U.T.T._.!.K k                                           ",
"                                              y.i R &.w.&.7.X.2 * ( 2.7.U.Y.U.T.L.p l 2X                                        ",
"                                          V.N.f.` ] 3.3.F E W W ( ;.3.3.e.U.w.U.H.O.f.x.S.>X                                    ",
"                                        3Xg i O.4.>.5.2.8 X A 7.3.:.3.3.2.7.3.2.7.U.`.f.y j                                     ",
"                                        {.v q +.,.>._ ' E w A 2.3.+.+.&.%.%.%.+.+.Y.W...a {                                     ",
"                                    i.y. .D.6.3.3.) * 3 X.=.%.e.7.A % 2 5 2 2 % 9 &.7.6.8.G.p.b <X                              ",
"                                    n y R 7.7.7.6.` # % $.U.3.3.H.P - 1 1 1 2 % w %.&.8.r.E.a h C.                              ",
"                                    x > ( q.2.! R R W ` $.7.#.F U U W ` | | ..! Q ! ! %.5.5.2 f >X                              ",
"                                    L $ G :.$.0 1 P &.7.7.2.] & & ( 6.J.W.W.T.H.D.0 X W q.e.q 4 B.                              ",
"                                    [ % G @.=.0 2 I 3.3.3.7.' O * ) 3.3.8.Q.J.J.L.5 : ~ e.7.c p N.                              ",
"                              <Xt.p...%.3.w.=.8 X S 3.:.3.7.X.2 O #.5.:.5.5.8.W.L.p 5 R H.H.^..Xx.y.i.                          ",
"                              ,Xh a 6.7.w.w.=.0 * C :.:.3.e.` % 2 ^ 3.3.:.3.e.Q.H.5 - R 6.7.]. Xz.r n                           ",
"                              :Xu 7 2.7.w.w.=.8 # C 3.:.) ^ W R Q $.w.w.:.3.q.e.J.......U ` '.&XK.y j                           ",
"                              :Xy 3 2.7.w.w.%.9 # C 3.&.w % Z %.=.7.w.0.1.0.q.q.J.T.`...$ N |.*XK.y j                           ",
"                              Z.y 3 2.3.0.7.%.3 # S 7.=.w X B 6.7.7.3.0.0.0.:.q.J.[.]...+ 6 .X=X~.i x                           ",
"                              Z.y 3 2.3.3.7.%.3 $ S 7.=.w o Z 2.3.3.:.1.1.1.0.3.J.]. Xo.> H #X7X~.4 x                           ",
"                              Z.y 3 2.3.3.3.%.3 # S H.=.w o Z 4.;.<.:.:.0.0.0.7.H. X Xg.> a OX7X~.4 j                           ",
"                              Z.y 7 2.3.3.3.%.3 # S 7.=.w o Z 2.>.>.<.:.0.w.w.=.L.$X&Xg.> 6 @X8X/.p x                           ",
"                              Z.y 3 2.:.3.3.%.3 $ A 7.%.w * Z 2.4.>.:.:.7.w.7.7.P.&X&Xg.> a 6XtX'.d m                           ",
"                              A.y 9 ;.:.2.2.%.9 % I 6.&.B # Z 2.3.3.3.3.3.3.5.2.P.%X*Xg.+ H =XtX|.d M                           ",
"                              A.i Z 3.3.3.2.%.9 % U H.*.9 # Z 7.2.3.3.3.3.:.>.4.P.-X9Xz.. a 6XtX).p m                           ",
"                              XXs V 3.3.3.3.&.9 # U H.&.9 # V 3.:.:.:.:.3.:.<.4.P.-XeX(.> a 4XrX/.i j                           ",
"                              1XY S 2.3.3.3.3.9 % I 7.&.q # V 3.:.:.:.:.3.3.<.3.^.=X0XN., a 4XrX/.i j                           ",
"                              1XT F 2.2.3.:.2.9 % I 6.2.q X V 3.w.0.1.1.7.7.:.2.^.7XeXx.+ 6 +XqX/.i j                           ",
"                                R F 7.7.3.:.&.9 X S 3.;.Z % A &.&.-.1.1.7.7.7.7.^.*X8Xz.@ N @X0X/.y j                           ",
"                                J S 7.7.3.3.=.8 X S 4.;.( ^ W Q Q $.0.1.2.7.U.T.^.F.h.o.D / =XeX{.u b                           ",
"                                  P 6.7.3.7.&.8 % S ;.;.3.e.~ ; 2 ~ :.1.&.H.[.$X).p . R 9.I.;XeX}.h b                           ",
"                                  f...2.:.w.$.8 X U 3.;.:.3.$.2 % ' ,.<.3.7.R.$XT.q X R `.^.&X8X}.t.i.                          ",
"                                    T & C 3.&.9 2 U 7.3.:.3.' X & ) :.3.8.U.L.T.H.& X *.;X%X~.f.oX                              ",
"                                    z $ G 3.+.9 ; P *.7.3.:.#.8 & ( 2.8.J.U.P.H.2.9 $ G.;X-XD.} 2X                              ",
"                                    x > ( q.@.^ Q Q ! ` +.:.+.F S S W ! W ! ` ` G S Z H.*X*X[ L 1X                              ",
"                                    n t R 7.w.&.7.~ X % ] e.7.2.6.I 1 X X % 2 # & 2.6.`. X/.a u C.                              ",
"                                    c.M s.*.7.0.7.' % 3 ' 2.%.U.7.A % 2 & % & % 3 *.6.I.'./.p.b <X                              ",
"                                        {.p w @.3.:._ ] U q A 2.7.$.+.:.+.#.%.*.D. X].o.6 {                                     ",
"                                        3Xe p *.3.:.5.3.8 X A 7.7.7.3.:.:.3.3.7.L.|. Xg.< x                                     ",
"                                          V.N.f.` ' 3.3.F E W ! ^ 2.7.3.3.w.3.7.H.G.!.x.B.>X                                    ",
"                                              y.i R &.w.&.7.X.2 & ( 6.7.7.3.e.Y.J.Y K 5X                                        ",
"                                              u.e [ *.7.2.2.` $ 2 ! 6.6.2.2.7.T.K.{ m                                           ",
"                                                  OXz s 7 Z N + 1 c P q q Z P Y d.                                              ",
"                                                    k l y , , , , i , . > , < t y.                                              ",
"                                                    n.b.v.M.k.k.v.m.k.j.l.l.v.b.,X                                              ",
"                                                                                                                                ",
"                                                                                                                                ",
"                                                                                                                                ",
"                                                                                                                                ",
"                                                                                                                                ",
"                                                                                                                                ",
"                                                                                                                                ",
"                                                                                                                                ",
"                                                                                                                                ",
"                                                                                                                                "
};
