/* XPM */
static char *_37a8dcc0c934529f81b8e711d3e2b35qAe1AbBu45Mg2BJo[] = {
/* columns rows colors chars-per-pixel */
"64 64 183 2 ",
"   c #0E263E",
".  c #1E253F",
"X  c #0C2343",
"o  c #0D2846",
"O  c #192744",
"+  c #132947",
"@  c #182C47",
"#  c #13274A",
"$  c #142C4B",
"%  c #16314E",
"&  c #1B324D",
"*  c #1A2E51",
"=  c #173352",
"-  c #1A3453",
";  c #1B3A57",
":  c #1F3C5A",
">  c #233249",
",  c #233552",
"<  c #233956",
"1  c #2A3E57",
"2  c #233C5B",
"3  c #293E5C",
"4  c #24425E",
"5  c #2A405E",
"6  c #254261",
"7  c #2B4464",
"8  c #2E4966",
"9  c #2E4669",
"0  c #2D4A6A",
"q  c #314664",
"w  c #314965",
"e  c #3B4A67",
"r  c #334D6B",
"t  c #3A4E6D",
"y  c #34516E",
"u  c #3A516D",
"i  c #3F5A6F",
"p  c #364C71",
"a  c #384F71",
"s  c #365472",
"d  c #3C5473",
"f  c #3C5876",
"g  c #3E5678",
"h  c #3D5B79",
"j  c #3F607F",
"k  c #415675",
"l  c #415A75",
"z  c #4C5C76",
"x  c #43577B",
"c  c #435D7C",
"v  c #495E7E",
"b  c #545E77",
"n  c #44617E",
"m  c #4A617E",
"M  c #516276",
"N  c #54657E",
"B  c #5B667D",
"V  c #52687F",
"C  c #59697E",
"Z  c #3D6080",
"A  c #445D81",
"S  c #456483",
"D  c #4B6584",
"F  c #476886",
"G  c #4D6986",
"H  c #476589",
"J  c #4B6689",
"K  c #476989",
"L  c #496C8C",
"P  c #4C6D8C",
"I  c #4F6C8C",
"U  c #4E6D8C",
"Y  c #4D6E8D",
"T  c #4F6E8D",
"R  c #4C6D8E",
"E  c #4F6C8E",
"W  c #4D6E8F",
"Q  c #4D6B89",
"!  c #506786",
"~  c #536685",
"^  c #506987",
"/  c #526A86",
"(  c #5A6A84",
")  c #526689",
"_  c #506988",
"`  c #526988",
"'  c #516A88",
"]  c #506B88",
"[  c #516A89",
"{  c #506B89",
"}  c #526B89",
"|  c #526B8A",
" . c #546B8A",
".. c #516C89",
"X. c #516C8A",
"o. c #506D8B",
"O. c #536C8A",
"+. c #526D8A",
"@. c #536C8B",
"#. c #526D8B",
"$. c #516F8B",
"%. c #536E8B",
"&. c #546D8B",
"*. c #506D8D",
"=. c #526C8D",
"-. c #516E8C",
";. c #506F8C",
":. c #536E8C",
">. c #526F8D",
",. c #516E8E",
"<. c #526F8F",
"1. c #536D8E",
"2. c #546D8C",
"3. c #566D8C",
"4. c #546F8D",
"5. c #556F8C",
"6. c #566F8D",
"7. c #546E8F",
"8. c #536D8B",
"9. c #5A6E8E",
"0. c #4E708B",
"q. c #4E708C",
"w. c #4E728C",
"e. c #4F708F",
"r. c #557187",
"t. c #5B7186",
"y. c #52708C",
"u. c #51708F",
"i. c #53708E",
"p. c #52718E",
"a. c #50728E",
"s. c #55708D",
"d. c #55708E",
"f. c #54718F",
"g. c #56718F",
"h. c #55708E",
"j. c #5A718E",
"k. c #516E90",
"l. c #566E91",
"z. c #5B6E91",
"x. c #5C6F99",
"c. c #537092",
"v. c #547191",
"b. c #577290",
"n. c #547193",
"m. c #577192",
"M. c #557392",
"N. c #527490",
"B. c #577594",
"V. c #567291",
"C. c #5A7391",
"Z. c #5A7593",
"A. c #597694",
"S. c #5B7596",
"D. c #5C7594",
"F. c #5C7795",
"G. c #5C7697",
"H. c #5B7292",
"J. c #5E7896",
"K. c #567199",
"L. c #5C7399",
"P. c #5C7999",
"I. c #5E7899",
"U. c #5E7B99",
"Y. c #5F799A",
"T. c #63748D",
"R. c #606E91",
"E. c #627595",
"W. c #687796",
"Q. c #607997",
"!. c #657995",
"~. c #6B7B95",
"^. c #657699",
"/. c #697799",
"(. c #617C9A",
"). c #657A9A",
"_. c #6B7A9B",
"`. c #6D7DA1",
"'. c #6F809D",
"]. c #73829E",
"[. c #6D80A1",
"{. c #7384A0",
"}. c #7689A4",
/* pixels */
"F Q Q L P P Q G K K G G K K G Y K K K Q Q Q Q Q G y.F K 7 h S S j L S F h 4 Y S F K X.F ,.D Y X.Y Y Y Y G G Y X.X.X.X.G G ] &.Q.",
"S K Q Q P P Q Q Q K K G G G G Q F K Q X.X.X.X.,.G Y K h : h S S S S S F n y Y F F K D ] Q X.F Y Y Y Y X.X.,.,.,.X.] X.G G ] ] Z.",
"n K Q P e.,.Q Q K F F G ] ^ G G K G X.X.X.X.X.X.^ G X.r ; h S S K h L S S S L K S G G X.Q X.F Y Q Q Y X.4.4.X.X.X.] X.] X.&.] C.",
"S K L P e.P Q Q F F F Q X.] G ^ X.X.] X.X.X.X.X.^ G X.s 7 h S S K Z L S L Q Q Q S K G c G ] ,.F Y Q ^ ] ,.,.] D Y Q ,.X.d.b.4.G.",
"F L L Q e.Y L Q G G ] &.&.] ] X.&.&.]  .4.4.X.] X.] ] D h h F F F S L F Y Q P J Y F h s D Q ,.F ,.Y Q X.,.4.] ] Q Q Y Q ,.d.X.Z.",
"L L L Q Y Q K Q ] X.,.,.X.] ] ] &.&.]  .4.4.&.Y 4.X.G ] D c F F n K S K L F Q J Q F c F F F F v.,.Y Q Q ,.4.4.X.,.Y X.Q ] ,.X.Z.",
"J L L Q Y Q K P X.Y Y X.X.] Q X.] X.X.X.X.X.X.Y &.] ] ] G D c d c K K K K L L K F Q K Q S J J b.Y Y Q Q Y X.X.Q y.,.d.X.,.4.,.G.",
"H K K Q 0.Y G ,.,.Y Q Y ,.4.,.4.G X.4.] G D G Q ] !  .F D ,.y 7 n G X.Y Y y.Q P e.Y n r h J l.J Y Y Y Y X.X.Q Q y.,.b.,.,.4.4.U.",
"D D G ] ] ] ] ] ] X.d.4.X.] &.4.X.G ] X.X.G ] 4.X.X.] F F n y y Y S ,.y.,.K ,.,.N.S 8 8 h F ,.G y.S P Q P P l.I y.P b.P =.b.,.U.",
"F D G G ] ] ] X.G X.4.d.4.&.] ] X.X.X.X.4.4.d.d.y.y.X.] 4.4.F K n Y Q Q U.,.c X.s y 0 h G G G K S F Y Q y.L ,.P L B.Q F K.b.D G.",
"S F F G G ^ ] ] Q ] X.X.,.&.] ] ] X.] X.4.b.d.4.d.4.X.G &.d.] d.X.G d.D f r 9 8 y f h F X.G K G X.D F S Q S L Q ,.Q S Q I F D U.",
"n S F F G D D D X.] G G ] ] ] ] G ] X.] ,.b.d.,.A.d.d.] ] d.X.d.X.F (.c - 3 f f n X.X.D F G Q G  .r y c Q Q Y ,.Q S b.P Q P J A.",
"S F K G G G ^ D X.] G G Q ] ] ] G X.d.X.,.d.b.d.Z.4.4.X.X.4.,.4.X.&.n - r m &. .G d.d.D G X.^ D D - r D ] ,.F L P v.b.6 f ,.F Q.",
"S S F G G G G D ] Q Q ] X.X.] ] ] X.d.d.4.d.b.b.d.] 4.X.] &.X.] d.G.r o D j.^ D X.G G G X.X.D ] D < l ] G G F F Q F v.f Y b.S ] ",
"n S F F F F F G Q ] X.X.X.X.] ] X.X.X.X.4.4.d.b.Z.&.j.9.] 4.4.X.G 4.y 8 F D G j.4.D G G X.] D 9.c u F ] G X.C.G Q F y.v.v.B.4.D.",
"S S S F F D G Y X.X.X.] ] ] X.4.4.] G X.d.d.d.b.b.] 4.4.^ 4.4.,.d.S - r d.X.F X.D D X.G ] 4.!  .d ^ X.G ,.X.C.d 7 ,.L Q L b.4.G.",
"S S S c S Q L F Q Q I ,.=.X.X.&.} X.4.,.,.,.,.d.4.4.4.&.&.4.&.=.Z.h 2 h X.F G } ] ] D d.] 4.] 4.d.G ] D D 4.G D D Q P b.Z.Z.r y ",
"S S c h S S F L Q L Q ,.,.] ] X.&.4.4.l.4.4.d.d.d.4.X.] ] &.4.4.F o 3 h c G G G ] 4.] &.^ 4.] ] X.G X.^ ] 4.F c ] b.Q b.A.] 2 r ",
"F S S S S F K Y S S L Q ,.X.X.&.&.4.4.l.l.l.d.d.X.X.&.4.4.4.4.X.Z.: r S D F X.G ] 4.] ] D ] ] ^ F D ] D ] 4.S c d.Z.Y d.G.c - d ",
"S S S S Y L L Q c S F Q ,.X.4.4.d.d.d.4.4.4.4.4.] X.4.j.d.4.4.] G 2 r c Q n ^ X.] X.] ^ ] ] ] ] &.4.9. .4.4.F K ^ 4.4.J.Z.c w ^ ",
"S S S F P L S L F F Q F ,.G X.G d.d.d.4.4.4.4.X.j.4.X.] ] 4.4.j.r $ D f c ] ^ G 4.] ] &.4.] ] X.j.9.j.9.4.D c Q D F X.J.C.G D W.",
"S S S S Q Q K L Q F Q S ,.Q 4.G d.d.l.l.l.4.4.&.d.4.4.X.X.4.4.4.2 9 Z.d c Q X.X.4.G ] ] 4.G ] ] X.^ 4.4. .D n ] &.D ^ C.&. .j.j.",
"S K S S Q P Q Q Q S F c ,.,.C.X.d.d.4.4.l.4.4.&.] ] 4.4.4.4.&.] - w c y D n Q ,.&.D G D ] ^ ] ] d.] 9.j.9.C.9.C.D.&.X.d.&.( 3.9.",
"S Q F F Q I Q F X.F F c 4.,.C.Q ,.,.,.,.4.4.&.X.X.] ] =.=.4.&.&.r & c D ,.X.G X.] ] ] D ] ] C.4.C.X.d. . .D.H. .j.D.C.C.H.&.H.~.",
"L F F Q P Q Q Q Q = d D ,.X.d.d.4.4.4.&.4.4.&.&.} &.G X.4.G Q.D l - F D Q D &.^ ] ] d.X.G ] Q ,.4.4.4.C.C.] D.9.9.j.9.9.j.j.H.E.",
"K S S K L L L Q s = h G X.X.,.4.&.&.&.&.4.&.&.] d.] D G D 4.D j.7 5 X.F G D &.d.d.Q X.X.,.X.Q 4.] X.] 4.9.4.E.H.9.j.9.j.H.H.H.E.",
"F S S L L Q Q Q F f b.4.X.,.,.X.X.X.X.&.4.&.] ^ ] F X.4.,.] Q.] % r Q c n F D G G D X.X.,.X.D Q X.4.4.C.C.C.D.9.j.H.H.H.D.H.H.E.",
"S F K L L L Q Q v.Q b.G X.d.b.4.X.X.X.X.X.X.X.] ] X.b.Q C.G d.2 9 D ] F G X.] F G ,.Z.,.X.d.4.d.] X.Q 4.C.C.9.H.H.H.H.H.H.H.H.E.",
"S S S F F L Q Q Q Q ,.Q d.d.4.4.4.,.X.X.X.4.,.4.4.b.X.F G.A.7 2 D X.] d.d.d.d.G 4.X.d.] Q 4.4.C.A.C.4.4.d. .] H.H.H.j.9.H.j.H.^.",
"n S K K K K Q ] ,.b.v.d.C.X.,.4.d.4.X.X.X.,.4.4.X.Q =.C.b.S r F 4.D D 4.X.] 4.X.d.D Q ,.d.,.D ] n F b.X.C.4.] C.H.H.9.9.H.H.H.^.",
"h n K Q G Q X.] F ,.L ,.d.X.C.C.4.,.X.X.,.,.4.,.,.Q b.B.d 8 F ,.4.] &.&.4.X.4.d.4.X.4.] Q X.D F - r Q c d.4.9.C.9.j.9.j.H.H.E.^.",
"s h F Q Q Q Q G F ,.F d.C.d.C.] ,.4.X.4.4.,.,.X.] C.A.S 6 F S K ) ] 4.D s.4.] =.G C.4.d r c F F 2 h A.h ] 4.C.4.3.j.j.j.E.H.E.^.",
"8 c L L L K.S J ] ] ] X.,.4.4.4.y.y.y.y.d.d.4.4.Q C.d.,.2 h S Y X.X.4.4.4.&.4.4.X.4.^ c c D G ] ] X.,.,.y.j.j.4.j.j.j.j.E.E.j.W.",
"r c L I I I c D Q ] X.,.4.,.,.=.,.,.,.,.4.4.4.4.d.X.X.S - y Q ,.X.X.X.X.4.4.X.] ] X.&.G D G X.X.] X.4.4.d.j.9.4.j.4.j.9.H.H.H.).",
"h D Q ,.,.I A J G X.d.C.b.b.4.,.y.y.y.y.d.b.C.C.d.G 4.S = s ,.Y X.X.X.X.4.4.4.] D ] &.&.X.] ] ] ] X.X.&.4.4.9.9.C.9.C.j.H.H.H.).",
"c D Q P ,.,.] l.G X.C.Z.Z.b.b.b.,.,.X.,.d.d.d.d.,.X.C.f - n ] X.X.X.X.X.4.4.&.] ] ] ] X.] G G ] 4.&.] ]  .9.9.z.H.C.D.C.D.H.H.).",
"c D G G Q =.4.4.G X.d.b.b.d.d.d.d.4.4.d.b.C.C.C.,.d.C.3 2 G G ,.] X.X.X.] ] ] ] j.] ] ] X.] ] 4.9.4. .&.9.9.9.H.C.C.G.D.E.E.H.).",
"c D Q G Q Q 4.D X.X.d.d.d.d.4.d.d.d.d.d.C.Z.C.d.,.d.] - f X.] X.X.4.d.d.4.X.4.4.4.] ] &.4.4.&.4.^ ^ ] 9.9.9.9.9.4.4.C.C.E.E.D.).",
"A D G X.4.G 4.J X.X.X.d.d.d.b.b.X.] ] X.4.d.,.] d.4.y 6 4.4.4.4.d.d.d.d.d.4.4.4.4. .]  .4.9.4.4.^ ^ ]  .9.3.4.4.4.] 4.9.E.^.D.).",
"D D F X.d.D C.4.G G G X.4.d.b.b.d.4.4.C.C.Z.b.4.A.d.= r X.] 4.C.d.4.4.4.4.4.4.X.j.9. . .4.C.9.4.&.X.]  .9.4.C.Z.4. .4.4.E.^.D.).",
"c D ,.d.b.4. .9.X.C.&.&.4.] 4.Z.Z.l.4.C.Z.C.j.4.b.l.- 0 v.,.b.b.,.4.d.C.C.d.4.d.d.X.4.C.9. .4.C.C.4.D ^ d.G.=.c x ! 9.&.E.E.j.[.",
"c D ,.,.4.4. .3.4.4.^ 4.G.C.d.] l.l.4.4.d.C.j.d.A.F $ 4 Q d.b.X.d.4.d.C.b.4.X.,.Y d.C.4.4.C.C.4.] C.j.] j.C.c 9 v  .9.&.E.E.H._.",
"f F X.,.d.l.4.4.d.d.X.X.D F X.,.3.z.Z.4.4.d.C.C.C.d.9 - Q Q ,.d.d.d.d.b.b.d.X.X.X.C.C.9.9.C.C.4.C.C.j.&.D r r c ) 9.H.9.E.^.H.'.",
"y n X.4.C.C.l.l.d.b.d.X.c h =.Z.l.Z.Z.l.4.C.C.d.] G.d 2 d 4.F X.4.4.4.4.d.d.4.4.j.d.4.C.C.4.d.C.C.4.D c r d D H.H.D.H.9.E.W.E.].",
"d F &.4.9.C.l.l.C.4.4.C.=.] Z.C.C.Z.C.4.l.C.C.4.] ] D 7 h c ] d.4.4.4.4.4.C.C.C.Z.j.4.C.Z.C.j.j.! d d c D j.).H.E.E.E.H.E.W.^.'.",
"D 4.9.9.H.z.z.H.C.z. .C.Z.C.D.l.Z.z.l.4.z.C.4.] ] D c 3 4.c l ] ] 4.4.4.4.C.C.C.C.D.Z.d.C.J.C.D d r c D.E.E.^.E.^.E.E.H.^.^.E._.",
"4.9.9.z.E.E.z.E.H.H.9.z.z.3.z.z.Z.z.l.z.z.z.4.] D c 2 u 4.C.w r D ] 4.4.4.C.C.C.j.Z.Z.d.Z.Z.D d 9 D Q.E.9.E.^.E.E.H.E.E.^.W.E._.",
"] ! ) 9.E.R.9.E.z.E.z.z.E.z.z.D.z.l.l.z.Z.z.4.3.k 2 m &. .D ] 7 c D 4.4.d.C.C.C.Z.d.s.j.Z.} d q c j.H.9.).W.T.W.E.H.E.^.^.W.W._.",
"!  .9.z.H.H.H.E.D.C.z.D.D.z.z.z.z.D.C.C.G.l.4.9 - d 9.H.9.9. .D r d.K ] E.9.H.l.H.9.3.j.&.q 2 D 9.9. .).D.E._.W./.^._.W._._._.'.",
"!  .9.z.z.H.H.H.z.l.z.D.L.D.z.z.^.z.Z.G.l.9 - r D 9.H.9.9.H.H. .D ^ ^ d.9. .9.C.C.j.j.&.7 X d z.H.9.9.E.D.)._._._./._.^._._.^._.",
"!  .9.z.H.H.H.H.z.z.H.D.L.D.z.z.L.=.G.l.3 9 9 A C.H.z. .9.H.z. .&.^ &.&.9.H.9.4.Z.G ] 2 - g Z.z.D.9.H.D.E._.E._._._._.^.^._.^.'.",
"!  .9.H.H.H.H.H.E.D.D.D.z.D.^.^.D.^.D.d r D d x 4.z.H.H.H.H.H.C. .9.d.&.H.E.9.G.C.G 2 $ =.l.=.L.9.9.9.H.^.).E._./././.^.^._.^.'.",
"!  .9.H.H.H.H.H.E.E.E.D.z.D.E.^.D.3.z.t d 3 d z.C.H.H.H.H.z.H.G.H.9.4.C.9.9.G.C.d 2 7 c K.J L.Z.3.z.) 9.).E._._.^.^./.^.^.^.^._.",
"]  .9.z.H.H.z.R.9.z.z.H.z.E.E.D.z.D.c @ @ c _.9.G.H.z.H.H.H.H.C.E.&.4.C.3.E.C.7 + 7 4.D l.Z.Z.G.D.D.) 9.).H._._._./._.^.W._.^._.",
"]  .4.9.z.z.9.9.9.z.z.z.z.D.D.D.9.j.5 , q  .! ).H.H.H.E.E.E.E.G.z.9.4. .z.9.r # r D =.Z.Z.=.G.3.D.3.3.3.E.E._.^._._._.W._._.^.'.",
"]  .4.9.9.9.9.9.z.R.z.9.z.z.E.D.^.t < 1 ~ E.z.9.9.z.H.H.z.z.H.G.z.H.C.4.E.d X 9 &.&.4.=.Z.D.l.).) x ) 3.E.)./.^._././.E.^.^.^.'.",
"=.=.) l.3.3.)  .z.D.z.3.9.z.z.D.H.5   i j.9.z.z.l.4.l.C.C.H.H.H.D.3.z.l.G.2 o K 9.z.l.l.L.L.G.).x * z.) D.^.^._._././.^.^.^.E._.",
"]  .3.E.H.H.j.E.).^.9.9.E.^.D.=.9.+ & ~ t.j.E.z.9.9.9.H.H.H.H.z.9.9.E. .9.@ r C.H.C.l.l.K.Z.G.).c *  .! z.^.E./._./._.^._._.^.].",
"!  . .E.j.H.E.'.}.'.T.j.9.3.x.x.z @ k D.3.9.H.z.9.9.9.9.9.9.9.9.3.9.9.9.v # D C.C.C.l.l.Z.Z.Z.Q.v < D ] j.).E._._./.).E.^.^.E.`.",
"! !  .^.E.E.E._.{._.].}._.9.D.z.1 q 9.l.z.z.3.H.9.9.3. .3.9.4.4.&.&. .^.q - D l.l.k.k.l.L.L.Z.D.] 9 D =.z.).E._._.^.).E.E.E.E._.",
"! ) 9._._.E.z.^.`.z.9.z.z. .E.v & k l.J L.L.l.z.z.9.9.4.4.4.l.l.G ] C.3.# 7 A K.k.K.l.K.L.L.l.Z.l.p J =.3.^.z.^.^.^.^.E.^.^.^.`.",
") ! ) D.E.H.9.z.z.z.z.z.E.E.E.< , c 4.l.L.l.G.z.H.9.9. .] ] ] ) G ^ H.q # x J K.L.L.Z.Z.Z.Z.Z.L.D a D ] 4.E.^.^.^.^.^.E.E.E.E._.",
"D D D 9.3.9.3.9.H.H.H.3.9.9.E., , m 3.E.j.! 9.E.3.( ( ( ~ ~ N N ( ( ~ O e  .d.l.D.D.C.C.D.C.j.A.c t ! ^ 3.j.^.^.^.E.^.E.E.E.T._.",
"m D ^ D.T.E.j.j.j.t.j.^._.^./., > z M C t.( ~ 9.( ( ( C C B B B N ( b . B ~ 3.j.j.j.j.j.T.j.r.s.l u / V / ( t.( T.T.E.!.~.~.~.]."
};
